<?xml version="1.0" encoding="utf-8"?>
<!-- Generator: Adobe Illustrator 21.0.0, SVG Export Plug-In . SVG Version: 6.00 Build 0)  -->
<svg version="1.1" id="图层_1" xmlns="http://www.w3.org/2000/svg" xmlns:xlink="http://www.w3.org/1999/xlink" x="0px" y="0px"
	 viewBox="0 0 128 128" style="enable-background:new 0 0 128 128;" xml:space="preserve">
<style type="text/css">
	.st0{fill:#FFFFFF;}
</style>
<circle class="st0" cx="64" cy="64" r="64"/>
<path d="M87.9,100.5c-4.7,4.5-9.8,3.8-14.7,1.7c-5.2-2.2-10-2.3-15.5,0c-6.9,3-10.5,2.1-14.6-1.7c-23.3-24-19.9-60.6,6.6-62
	c6.4,0.3,10.9,3.6,14.7,3.8c5.6-1.1,11-4.4,17-4c7.2,0.6,12.7,3.4,16.3,8.6c-14.9,9-11.4,28.6,2.3,34.1
	C97.3,88.2,93.8,95.3,87.9,100.5L87.9,100.5z M63.9,38.3c-0.7-10.7,8-19.5,17.9-20.3C83.1,30.3,70.6,39.5,63.9,38.3z"/>
</svg>
