<?xml version="1.0" encoding="utf-8"?>
<!-- Generator: Adobe Illustrator 21.0.0, SVG Export Plug-In . SVG Version: 6.00 Build 0)  -->
<svg version="1.1" id="图层_1" xmlns="http://www.w3.org/2000/svg" xmlns:xlink="http://www.w3.org/1999/xlink" x="0px" y="0px"
	 viewBox="0 0 128 128" style="enable-background:new 0 0 128 128;" xml:space="preserve">
<style type="text/css">
	.st0{fill:#826AFC;}
	.st1{fill:#FFFFFF;}
</style>
<circle class="st0" cx="64" cy="64" r="64"/>
<path class="st1" d="M110,64c0-25.4-20.6-46-46-46c-25.4,0-46,20.6-46,46c0,25.4,20.6,46,46,46C89.4,110,110,89.4,110,64z
	 M60.1,20.8L25.5,83.9c-3.2-6.1-4.9-13-4.8-19.9C20.6,41.4,38,22.8,60.1,20.8L60.1,20.8z M62.7,63.2L29.1,82.6l33.6-61.1V63.2z
	 M62.7,107.3c-7.2-0.2-14.2-2.2-20.4-5.8c-6.2-3.6-11.4-8.7-15.2-14.8l35.6-20.5V107.3z M74.3,41.5c0,3.8-0.8,7.5-2.4,10.9
	c-1.6,3.4-3.8,6.5-6.6,9v-40c2.8,2.5,5.1,5.6,6.7,9C73.5,33.9,74.3,37.7,74.3,41.5z M100.9,41.2L71.8,58c3.3-4.9,5.1-10.6,5.1-16.5
	c0-3.8-0.7-7.6-2.2-11.2c-1.5-3.5-3.6-6.8-6.3-9.5c6.6,0.7,13,2.9,18.6,6.4C92.6,30.8,97.4,35.5,100.9,41.2L100.9,41.2z M102.2,84.6
	L66.6,64l35.6-20.6c3.4,6.3,5.2,13.4,5.2,20.6S105.6,78.2,102.2,84.6z M100.9,86.8c-3.8,6.1-9,11.2-15.2,14.7
	c-6.2,3.6-13.2,5.6-20.4,5.8V66.3L100.9,86.8z"/>
</svg>
