<?xml version="1.0" encoding="utf-8"?>
<!-- Generator: Adobe Illustrator 21.0.0, SVG Export Plug-In . SVG Version: 6.00 Build 0)  -->
<svg version="1.1" id="图层_1" xmlns="http://www.w3.org/2000/svg" xmlns:xlink="http://www.w3.org/1999/xlink" x="0px" y="0px"
	 viewBox="0 0 128 128" style="enable-background:new 0 0 128 128;" xml:space="preserve">
<style type="text/css">
	.st0{fill:#0052B4;}
	.st1{fill:#F0F0F0;}
	.st2{fill:#D80027;}
</style>
<path class="st0" d="M128,64c0,35.3-28.7,64-64,64S0,99.3,0,64C0,64,64,0,64,0C99.3,0,128,28.7,128,64z"/>
<path class="st1" d="M63.8,64H64v-0.2L63.8,64z"/>
<path class="st1" d="M64,33.4L64,0C28.7,0,0,28.7,0,64h33.4V45.2L52.2,64h11.6l0.2-0.2V52.2L45.2,33.4H64z"/>
<path class="st2" d="M32.4,8.3c-10,5.7-18.3,14-24,24V64H25V25h39V8.4L32.4,8.3L32.4,8.3z M64,56.1L41.3,33.4h-7.9L64,64V56.1z"/>
<path class="st1" d="M38.6,75.1l3.5,7.3l7.9-1.8L46.5,88l6.4,5.1l-7.9,1.8l0,8.1l-6.4-5.1l-6.4,5.1l0-8.1L24.3,93l6.4-5.1l-3.6-7.3
	l7.9,1.8L38.6,75.1L38.6,75.1z"/>
<path class="st1" d="M95.8,89l1.8,3.7l4-0.9l-1.8,3.7L103,98l-4,0.9l0,4.1l-3.2-2.5l-3.2,2.5l0-4.1l-4-0.9l3.2-2.5l-1.8-3.7l4,0.9
	L95.8,89z"/>
<path class="st1" d="M79.5,50.1l1.8,3.7l4-0.9l-1.8,3.7l3.2,2.5l-4,0.9l0,4.1l-3.2-2.5L76.3,64l0-4.1l-4-0.9l3.2-2.5l-1.8-3.7l4,0.9
	L79.5,50.1L79.5,50.1z"/>
<path class="st1" d="M95.8,27.8l1.8,3.7l4-0.9l-1.8,3.7l3.2,2.5l-4,0.9l0,4.1l-3.2-2.5l-3.2,2.5l0-4.1l-4-0.9l3.2-2.5l-1.8-3.7
	l4,0.9L95.8,27.8z"/>
<path class="st1" d="M110.1,44.5l1.8,3.7l4-0.9l-1.8,3.7l3.2,2.5l-4,0.9l0,4.1l-3.2-2.5l-3.2,2.5l0-4.1l-4-0.9l3.2-2.5l-1.8-3.7
	l4,0.9L110.1,44.5L110.1,44.5z M99.9,64l1.4,4.3h4.5l-3.6,2.6l1.4,4.3l-3.6-2.6l-3.6,2.6l1.4-4.3L94,68.2h4.5L99.9,64z"/>
</svg>
