<?xml version="1.0" encoding="utf-8"?>
<!-- Generator: Adobe Illustrator 21.0.0, SVG Export Plug-In . SVG Version: 6.00 Build 0)  -->
<svg version="1.1" id="图层_1" xmlns="http://www.w3.org/2000/svg" xmlns:xlink="http://www.w3.org/1999/xlink" x="0px" y="0px"
	 viewBox="0 0 128 128" style="enable-background:new 0 0 128 128;" xml:space="preserve">
<style type="text/css">
	.st0{fill:#F9FFF3;}
	.st1{fill:#27A577;}
</style>
<circle class="st0" cx="64" cy="64" r="64"/>
<path class="st1" d="M46.3,64c8.3,0,15.3-5.5,17.7-13c2.4,7.5,9.4,13,17.7,13c-8.3,0-15.3,5.5-17.7,13C61.6,69.5,54.6,64,46.3,64z
	 M64,88.2c2.4,7.5,9.4,13,17.7,13c10.3,0,18.6-8.3,18.6-18.6S92,64,81.7,64c10.3,0,18.6-8.3,18.6-18.6S92,26.8,81.7,26.8
	c-8.3,0-15.3,5.5-17.7,13c-2.4-7.5-9.4-13-17.7-13c-10.3,0-18.6,8.3-18.6,18.6S36,64,46.3,64C36,64,27.7,72.3,27.7,82.6
	s8.3,18.6,18.6,18.6C54.6,101.2,61.6,95.7,64,88.2z"/>
</svg>
