<?xml version="1.0" encoding="utf-8"?>
<!-- Generator: Adobe Illustrator 21.0.0, SVG Export Plug-In . SVG Version: 6.00 Build 0)  -->
<svg version="1.1" id="图层_1" xmlns="http://www.w3.org/2000/svg" xmlns:xlink="http://www.w3.org/1999/xlink" x="0px" y="0px"
	 viewBox="0 0 128 128" style="enable-background:new 0 0 128 128;" xml:space="preserve">
<style type="text/css">
	.st0{fill:#D80027;}
	.st1{fill:#FFDA44;}
</style>
<path class="st0" d="M64,128c35.3,0,64-28.7,64-64c0-35.3-28.7-64-64-64C28.7,0,0,28.7,0,64C0,99.3,28.7,128,64,128z"/>
<path class="st1" d="M35,39l5.5,17h17.9L44,66.5l5.5,17L35,73L20.5,83.5l5.6-17L11.6,56h17.9L35,39z"/>
<path class="st1" d="M75.9,99.1l-4.2-5.2l-6.3,2.4l3.6-5.6l-4.2-5.2l6.5,1.7l3.6-5.6l0.3,6.7l6.5,1.7l-6.3,2.4L75.9,99.1z"/>
<path class="st1" d="M84.3,83.9l2-6.4l-5.5-3.9l6.7-0.1l2-6.4l2.2,6.3l6.7-0.1l-5.4,4l2.1,6.3l-5.5-3.9L84.3,83.9z"/>
<path class="st1" d="M95.6,47l-2.9,6l4.8,4.7l-6.6-0.9l-2.9,6l-1.2-6.6l-6.6-1L86,52l-1.1-6.6l4.8,4.7L95.6,47z"/>
<path class="st1" d="M76,28.7l-0.5,6.7l6.2,2.5l-6.5,1.6l-0.5,6.7l-3.5-5.7l-6.5,1.6L69,37l-3.5-5.7l6.2,2.5L76,28.7z"/>
</svg>
