<?xml version="1.0" encoding="utf-8"?>
<!-- Generator: Adobe Illustrator 21.0.0, SVG Export Plug-In . SVG Version: 6.00 Build 0)  -->
<svg version="1.1" id="图层_1" xmlns="http://www.w3.org/2000/svg" xmlns:xlink="http://www.w3.org/1999/xlink" x="0px" y="0px"
	 viewBox="0 0 128 128" style="enable-background:new 0 0 128 128;" xml:space="preserve">
<style type="text/css">
	.st0{fill:#FFFFFF;filter:url(#Adobe_OpacityMaskFilter);}
	.st1{mask:url(#mask0_30967_154432);}
	.st2{fill:#8150E6;}
	.st3{fill:#3C176B;}
	.st4{fill:#6B42BD;}
	.st5{fill:#9B74EC;}
	.st6{fill:#FFFFFF;}
</style>
<defs>
	<filter id="Adobe_OpacityMaskFilter" filterUnits="userSpaceOnUse" x="0" y="0" width="128" height="128">
		<feColorMatrix  type="matrix" values="1 0 0 0 0  0 1 0 0 0  0 0 1 0 0  0 0 0 1 0"/>
	</filter>
</defs>
<mask maskUnits="userSpaceOnUse" x="0" y="0" width="128" height="128" id="mask0_30967_154432">
	<path class="st0" d="M0,0h128v128H0V0z"/>
</mask>
<g class="st1">
	<path class="st2" d="M128,64c0,35.3-28.7,64-64,64C28.7,128,0,99.3,0,64C0,28.7,28.7,0,64,0C99.3,0,128,28.7,128,64z"/>
</g>
<path class="st3" d="M125.6,81.4L80,36.5l-26-4.8L38.9,88.9l38.3,37.7C100.6,121.7,119.2,104.1,125.6,81.4z"/>
<path class="st4" d="M58.5,83.9V48.5h8.9c3,0,5.8,0.4,8.3,1.1c2.5,0.8,4.7,2,6.5,3.6c0.3,0.2,0.5,0.5,0.7,0.7
	c0-4.8-1.7-9.6-4.2-13.9c-2.7-0.8-5.5-1.2-8.4-1.2H48.7v45C52,83.9,55.2,84.1,58.5,83.9z"/>
<path class="st5" d="M96,55.6c-1.6-3.8-3.6-6.9-6.2-9.4c-2.6-2.5-5.6-4.3-8.9-5.6c-0.7-0.2-1.4-0.5-2.1-0.7
	c2.5,4.3,4.2,9.1,4.2,13.9c1.5,1.5,2.4,7.4,3.3,9.6L58.5,88.9v-5c-3.3,0.3-6.5,0-9.8,0v14.7h20.5c3.3,0,6.7-0.6,10.1-1.8
	c3.4-1.2,6.6-3.1,9.4-5.5c2.8-2.5,5.1-5.6,6.9-9.3c1.8-3.8,2.7-8.2,2.7-13.4C98.4,63.5,97.6,59.3,96,55.6z"/>
<path class="st6" d="M56,79.2c3.1,0,5.9-0.4,8.7-1.1c2.7-0.8,5.1-1.9,7.1-3.6c2-1.6,3.6-3.7,4.8-6.3c1.2-2.6,1.7-5.7,1.7-9.4
	c0-3.6-0.5-6.4-1.6-9c-1-2.6-2.5-4.7-4.3-6.3c-1.8-1.6-4-2.8-6.5-3.6c-2.5-0.8-5.3-1.1-8.3-1.1h-8.9v40.4H56z M38.9,29.1h21.7
	c3.6,0,7.1,0.6,10.5,1.8c3.4,1.2,6.3,3.1,8.9,5.6c2.6,2.5,4.7,5.6,6.2,9.4c1.6,3.8,2.3,7.9,2.3,13c0,5.1-0.9,9.6-2.7,13.4
	c-1.8,3.8-4.1,6.9-6.9,9.3c-2.8,2.5-6,4.3-9.4,5.5c-3.4,1.2-6.8,1.8-10.1,1.8H38.9V29.1z"/>
</svg>
