<?xml version="1.0" encoding="utf-8"?>
<!-- Generator: Adobe Illustrator 21.0.0, SVG Export Plug-In . SVG Version: 6.00 Build 0)  -->
<svg version="1.1" id="图层_1" xmlns="http://www.w3.org/2000/svg" xmlns:xlink="http://www.w3.org/1999/xlink" x="0px" y="0px"
	 viewBox="0 0 128 128" style="enable-background:new 0 0 128 128;" xml:space="preserve">
<style type="text/css">
	.st0{fill:none;}
	.st1{fill:#FFFFFF;}
	.st2{fill:url(#SVGID_1_);}
	.st3{enable-background:new    ;}
	.st4{fill:#0081FB;}
	.st5{fill:url(#SVGID_2_);}
	.st6{fill:url(#SVGID_3_);}
</style>
<rect class="st0" width="128" height="128"/>
<circle class="st1" cx="64" cy="64" r="64"/>
<path class="st0" d="M84.5,32.8c-7.7,0-13.7,5.8-19.2,13.2C57.8,36.4,51.5,32.8,44,32.8c-15.3,0-27,19.9-27,41
	c0,13.2,6.4,21.5,17.1,21.5c7.7,0,13.2-3.6,23-20.8c0,0,4.1-7.2,6.9-12.2c1,1.6,2,3.3,3.1,5.2l4.6,7.8c9,15,14,20.1,23,20.1
	c10.4,0,16.2-8.4,16.2-21.9C111,51.3,99,32.8,84.5,32.8z M49.6,69.8c-8,12.5-10.7,15.3-15.2,15.3c-4.6,0-7.3-4-7.3-11.2
	c0-15.3,7.6-30.9,16.7-30.9c4.9,0,9,2.8,15.3,11.9C53.2,64,49.6,69.8,49.6,69.8z M79.7,68.2L74.2,59c-1.5-2.4-2.9-4.7-4.3-6.7
	c5-7.7,9.1-11.5,13.9-11.5C93.9,40.8,102,55.7,102,74c0,7-2.3,11-7,11C90.5,85.1,88.3,82.1,79.7,68.2z"/>
<g>
	<linearGradient id="SVGID_1_" gradientUnits="userSpaceOnUse" x1="76.7525" y1="66.7305" x2="96.0176" y2="62.8269">
		<stop  offset="0" style="stop-color:#0867E0"/>
		<stop  offset="1" style="stop-color:#0081FB"/>
	</linearGradient>
	<path class="st2" d="M64,62.3c1,1.6,2,3.3,3.1,5.2l4.6,7.8c9,15,14,20.1,23,20.1c10.4,0,16.2-8.4,16.2-21.9
		C111,51.3,99,32.8,84.5,32.8c-7.7,0-13.7,5.8-19.2,13.2L64,62.3z M79.7,68.2L74.2,59c-1.5-2.4-2.9-4.7-4.3-6.7
		c5-7.7,9.1-11.5,13.9-11.5C93.9,40.8,102,55.7,102,74c0,7-2.3,11-7,11C90.5,85.1,88.3,82.1,79.7,68.2z"/>
	<g class="st3">
		<path class="st4" d="M83.8,40.8c9.1,0,16.6,12.2,18,28l9.1,4.7C111,51.3,99,32.8,84.5,32.8c-7.7,0-13.7,5.8-19.2,13.2l4.6,6.3
			C74.9,44.6,79,40.8,83.8,40.8z"/>
	</g>
	<linearGradient id="SVGID_2_" gradientUnits="userSpaceOnUse" x1="36.132" y1="41.9084" x2="42.5613" y2="67.7288">
		<stop  offset="0" style="stop-color:#0163DF"/>
		<stop  offset="1" style="stop-color:#0081FB"/>
	</linearGradient>
	<path class="st5" d="M65.3,46C57.8,36.4,51.5,32.8,44,32.8c-15.3,0-27,19.9-27,41c0,13.2,6.4,21.5,17.1,21.5
		c7.7,0,13.2-3.6,23-20.8c0,0,4.1-7.2,6.9-12.2L65.3,46z M49.6,69.8c-8,12.5-10.7,15.3-15.2,15.3c-4.6,0-7.3-4-7.3-11.2
		c0-15.3,7.6-30.9,16.7-30.9c4.9,0,9,2.8,15.3,11.9C53.2,64,49.6,69.8,49.6,69.8z"/>
	
		<linearGradient id="SVGID_3_" gradientUnits="userSpaceOnUse" x1="71.062" y1="640.0598" x2="45.0497" y2="605.9745" gradientTransform="matrix(1 0 0 1 0 -574)">
		<stop  offset="0.1336" style="stop-color:#0869E1"/>
		<stop  offset="0.8741" style="stop-color:#0064E0"/>
	</linearGradient>
	<path class="st6" d="M74.2,59C62.2,39.6,54.3,32.8,44,32.8L43.9,43c6.7,0,11.9,5.3,23.3,24.4l0.7,1.2L74.2,59z"/>
</g>
</svg>
