<?xml version="1.0" encoding="utf-8"?>
<!-- Generator: Adobe Illustrator 21.0.0, SVG Export Plug-In . SVG Version: 6.00 Build 0)  -->
<svg version="1.1" id="图层_1" xmlns="http://www.w3.org/2000/svg" xmlns:xlink="http://www.w3.org/1999/xlink" x="0px" y="0px"
	 viewBox="0 0 128 128" style="enable-background:new 0 0 128 128;" xml:space="preserve">
<style type="text/css">
	.st0{fill:#F0F0F0;}
	.st1{fill:#D80027;}
</style>
<path class="st0" d="M64,128c35.3,0,64-28.7,64-64S99.3,0,64,0S0,28.7,0,64S28.7,128,64,128z"/>
<path class="st1" d="M64,91.8c7.4,0,14.5-2.9,19.7-8.2s8.1-12.3,8.2-19.7c0-7.4-2.9-14.5-8.2-19.7S71.4,36.2,64,36.2
	c-7.4,0-14.5,2.9-19.7,8.2S36.2,56.6,36.2,64c0,7.4,2.9,14.5,8.2,19.7S56.6,91.8,64,91.8z"/>
</svg>
