<svg width="128" height="128" viewBox="0 0 128 128" fill="none" xmlns="http://www.w3.org/2000/svg">
<circle cx="64" cy="64" r="64" fill="white"/>
<path fill-rule="evenodd" clip-rule="evenodd" d="M17.7149 90.6848C15.8729 90.6848 14.7537 88.4697 15.4998 86.6044L39.9355 40.3445C41.4044 37.7564 43.6428 36.2642 46.604 36.2642H57.6793C59.5213 36.2642 60.6405 38.4792 59.8943 40.3445L35.482 86.6044C34.0131 89.1925 31.7747 90.6848 28.8135 90.6848H17.7149Z" fill="#FF6400"/>
<path fill-rule="evenodd" clip-rule="evenodd" d="M23.6394 90.6868H13.3335L17.9268 81.9897L23.6394 90.6868Z" fill="#FF6400"/>
<path fill-rule="evenodd" clip-rule="evenodd" d="M51.7588 36.2642H62.1346L57.6112 44.6814L51.7588 36.2642Z" fill="#FF6400"/>
<path fill-rule="evenodd" clip-rule="evenodd" d="M112.451 86.9812L109.862 82.5511L94.6834 54.4315L92.4683 50.3511L90.2532 54.0584L84.3308 64.784C83.2117 66.999 83.2117 69.9602 84.3308 72.5483L92.0952 86.6082C93.5642 89.1963 95.8026 90.6886 98.7637 90.6886H105.432H110.235H114.666L112.451 86.9812Z" fill="black"/>
<path fill-rule="evenodd" clip-rule="evenodd" d="M59.5445 90.6848H48.4458C46.6038 90.6848 45.4846 88.4697 46.2308 86.6044L70.6664 40.3445C72.1354 37.7564 74.3737 36.2642 77.3349 36.2642H88.4335C90.2755 36.2642 91.3947 38.4792 90.6486 40.3445L66.1897 86.6044C64.7207 89.1925 62.5057 90.6848 59.5445 90.6848Z" fill="#00D8E2"/>
<path fill-rule="evenodd" clip-rule="evenodd" d="M54.3453 90.6814H44.0627L48.4929 82.2642L54.3453 90.6814Z" fill="#00D8E2"/>
<path fill-rule="evenodd" clip-rule="evenodd" d="M82.4897 36.2642H92.7723L88.2023 44.9379L82.4897 36.2642Z" fill="#00D8E2"/>
</svg>
