<?xml version="1.0" encoding="utf-8"?>
<!-- Generator: Adobe Illustrator 21.0.0, SVG Export Plug-In . SVG Version: 6.00 Build 0)  -->
<svg version="1.1" id="图层_1" xmlns="http://www.w3.org/2000/svg" xmlns:xlink="http://www.w3.org/1999/xlink" x="0px" y="0px"
	 viewBox="0 0 128 128" style="enable-background:new 0 0 128 128;" xml:space="preserve">
<style type="text/css">
	.st0{fill:#FFFFFF;}
	.st1{clip-path:url(#SVGID_2_);}
	.st2{fill:#28ABE1;}
	.st3{fill:#3DB3E3;}
	.st4{fill:#4AB8E6;}
	.st5{fill:#57BDE8;}
	.st6{fill:#63C2EB;}
	.st7{fill:#70C7EB;}
	.st8{fill:#7DCCEE;}
	.st9{fill:#8AD1F0;}
	.st10{fill:#97D7F0;}
	.st11{fill:#A3DCF3;}
	.st12{fill:#B0E1F5;}
	.st13{fill:#BDE6F5;}
	.st14{fill:#E11735;}
</style>
<circle class="st0" cx="64" cy="64" r="64"/>
<g>
	<defs>
		<rect id="SVGID_1_" x="11" y="51" width="110" height="25.4"/>
	</defs>
	<clipPath id="SVGID_2_">
		<use xlink:href="#SVGID_1_"  style="overflow:visible;"/>
	</clipPath>
	<g class="st1">
		<path class="st2" d="M112.3,74.7h-1.6c-0.4,0-0.6,0.3-0.6,0.8c0,0.5,0.2,0.8,0.6,0.8h6c0.4,0,0.6-0.3,0.6-0.8
			c0-0.5-0.2-0.8-0.6-0.8H112.3z"/>
		<path class="st3" d="M103.1,74.7h-1.6c-0.4,0-0.6,0.3-0.6,0.8c0,0.5,0.2,0.8,0.6,0.8h6c0.4,0,0.6-0.3,0.6-0.8
			c0-0.5-0.2-0.8-0.6-0.8H103.1z"/>
		<path class="st4" d="M94.4,74.7h-1.6c-0.4,0-0.6,0.3-0.6,0.8c0,0.5,0.2,0.8,0.6,0.8h6c0.4,0,0.6-0.3,0.6-0.8
			c0-0.5-0.2-0.8-0.6-0.8H94.4z"/>
		<path class="st5" d="M85.2,74.7h-1.6c-0.4,0-0.6,0.3-0.6,0.8c0,0.5,0.2,0.8,0.6,0.8h6c0.4,0,0.6-0.3,0.6-0.8
			c0-0.5-0.2-0.8-0.6-0.8H85.2z"/>
		<path class="st6" d="M76,74.7h-1.6c-0.4,0-0.6,0.3-0.6,0.8c0,0.5,0.2,0.8,0.6,0.8h6c0.4,0,0.6-0.3,0.6-0.8c0-0.5-0.2-0.8-0.6-0.8
			H76z"/>
		<path class="st7" d="M67.3,74.7h-1.6c-0.4,0-0.6,0.3-0.6,0.8c0,0.5,0.2,0.8,0.6,0.8h6c0.4,0,0.6-0.3,0.6-0.8
			c0-0.5-0.2-0.8-0.6-0.8H67.3z"/>
		<path class="st8" d="M58.1,74.7h-1.6c-0.4,0-0.6,0.3-0.6,0.8c0,0.5,0.2,0.8,0.6,0.8h6c0.4,0,0.6-0.3,0.6-0.8
			c0-0.5-0.2-0.8-0.6-0.8H58.1z"/>
		<path class="st9" d="M48.9,74.7h-1.6c-0.4,0-0.6,0.3-0.6,0.8c0,0.5,0.2,0.8,0.6,0.8h6c0.4,0,0.6-0.3,0.6-0.8
			c0-0.5-0.2-0.8-0.6-0.8H48.9z"/>
		<path class="st10" d="M40.2,74.7h-1.6c-0.4,0-0.6,0.3-0.6,0.8c0,0.5,0.2,0.8,0.6,0.8h6c0.4,0,0.6-0.3,0.6-0.8
			c0-0.5-0.2-0.8-0.6-0.8H40.2z"/>
		<path class="st11" d="M31,74.7h-1.5c-0.4,0-0.6,0.3-0.6,0.8c0,0.5,0.2,0.8,0.6,0.8h6c0.4,0,0.6-0.3,0.6-0.8c0-0.5-0.2-0.8-0.6-0.8
			H31z"/>
		<path class="st12" d="M21.8,74.7h-1.6c-0.4,0-0.6,0.3-0.6,0.8c0,0.5,0.2,0.8,0.6,0.8h6c0.4,0,0.6-0.3,0.6-0.8
			c0-0.5-0.2-0.8-0.6-0.8H21.8z"/>
		<path class="st13" d="M13.1,74.7h-1.6c-0.4,0-0.6,0.3-0.6,0.8c0,0.5,0.2,0.8,0.6,0.8h6c0.4,0,0.6-0.3,0.6-0.8
			c0-0.5-0.2-0.8-0.6-0.8H13.1z"/>
		<path class="st14" d="M11,56.1h1.6v2.2c0.6-0.8,1.1-1.4,1.7-1.8c0.8-0.5,1.7-0.8,2.6-0.8c0.6,0,1.2,0.1,1.8,0.4
			c0.5,0.2,1,0.6,1.3,1c0.3,0.4,0.7,1,0.9,1.7c0.5-1,1.2-1.8,2-2.3c0.8-0.5,1.7-0.8,2.6-0.8c0.9,0,1.7,0.2,2.3,0.7
			c0.7,0.5,1.2,1.1,1.5,1.9c0.3,0.8,0.5,2,0.5,3.6v7.1h-1.7V62c0-1.4-0.1-2.3-0.3-2.9c-0.2-0.5-0.5-1-1-1.3c-0.5-0.3-1-0.5-1.7-0.5
			c-0.8,0-1.5,0.3-2.2,0.7c-0.6,0.5-1.1,1.1-1.4,1.9c-0.3,0.8-0.4,2.1-0.4,4v5.1h-1.6v-6.6c0-1.6-0.1-2.6-0.3-3.2
			c-0.2-0.5-0.5-1-1-1.3c-0.5-0.3-1.1-0.5-1.7-0.5c-0.8,0-1.4,0.2-2.1,0.7c-0.6,0.5-1.1,1.1-1.4,1.9c-0.3,0.8-0.5,2-0.5,3.6v5.5H11
			V56.1z M39.6,57.5c-1.4,0-2.5,0.5-3.5,1.6c-1,1-1.5,2.3-1.5,3.8c0,0.9,0.2,1.8,0.7,2.7c0.4,0.8,1,1.4,1.8,1.9
			c0.8,0.4,1.6,0.7,2.5,0.7c0.9,0,1.7-0.2,2.5-0.7c0.8-0.4,1.4-1.1,1.8-1.9c0.4-0.8,0.7-1.7,0.7-2.7c0-1.5-0.5-2.7-1.5-3.8
			C42.2,58,41,57.5,39.6,57.5z M39.6,55.8c2,0,3.6,0.7,4.9,2.2c1.2,1.3,1.8,2.9,1.8,4.8c0,1.8-0.6,3.4-1.9,4.8
			c-1.2,1.4-2.8,2.1-4.8,2.1c-2,0-3.6-0.7-4.8-2.1c-1.2-1.3-1.9-3-1.9-4.8c0-1.8,0.6-3.4,1.8-4.7C36,56.5,37.7,55.8,39.6,55.8z
			 M55.6,57.5c-0.9,0-1.8,0.2-2.5,0.7c-0.8,0.5-1.4,1.1-1.8,2c-0.4,0.8-0.7,1.7-0.7,2.6c0,0.9,0.2,1.8,0.7,2.6
			c0.5,0.8,1.1,1.5,1.9,2c0.8,0.5,1.6,0.7,2.5,0.7c0.9,0,1.8-0.2,2.6-0.7c0.8-0.5,1.4-1.1,1.9-1.9c0.4-0.8,0.6-1.7,0.6-2.7
			c0-1.5-0.5-2.8-1.5-3.8c-0.5-0.5-1-0.9-1.6-1.1C56.9,57.6,56.2,57.5,55.6,57.5z M62.1,51.2v18.1h-1.6V67c-0.6,0.8-1.4,1.5-2.3,1.9
			c-0.9,0.4-1.8,0.7-2.8,0.7c-1.8,0-3.4-0.7-4.6-2c-1.3-1.3-1.9-3-1.9-4.9c0-1.9,0.7-3.5,1.9-4.8c1.3-1.3,2.8-2,4.7-2
			c1.1,0,2,0.2,2.8,0.7c0.9,0.5,1.6,1.1,2.2,2.1v-7.4H62.1z M76.7,61.4c-0.2-0.9-0.6-1.6-1-2.2c-0.4-0.6-1-1-1.7-1.3
			c-0.7-0.3-1.4-0.5-2.2-0.5c-1.3,0-2.3,0.4-3.3,1.2c-0.7,0.6-1.2,1.5-1.5,2.7H76.7z M76.7,64.9l1.4,0.8c-0.4,0.8-0.9,1.6-1.6,2.2
			c-0.6,0.6-1.3,1-2,1.3c-0.7,0.3-1.6,0.4-2.6,0.4c-2.1,0-3.7-0.7-4.9-2.1c-1.2-1.4-1.8-3-1.8-4.8c0-1.7,0.5-3.2,1.5-4.5
			c1.3-1.7,3-2.5,5.1-2.5c2.2,0,3.9,0.8,5.3,2.5c0.9,1.2,1.4,2.7,1.4,4.5H66.9c0,1.5,0.5,2.8,1.4,3.7c0.4,0.5,1,0.8,1.6,1.1
			c0.6,0.3,1.2,0.4,1.9,0.4c0.7,0,1.3-0.1,1.9-0.4c0.6-0.2,1.1-0.5,1.6-0.9C75.7,66.4,76.2,65.8,76.7,64.9z M81,56.1h1.7V58
			c0.5-0.7,1.1-1.3,1.6-1.7c0.6-0.4,1.2-0.6,1.8-0.6c0.5,0,1,0.2,1.5,0.4l-0.9,1.4c-0.3-0.1-0.6-0.2-0.9-0.2c-0.6,0-1.1,0.2-1.6,0.7
			c-0.5,0.5-0.9,1.2-1.2,2.1c-0.2,0.7-0.3,2.2-0.3,4.5v4.4H81V56.1z M89.7,56.1h1.6v2.3c0.6-0.9,1.3-1.6,2.1-2
			c0.8-0.4,1.6-0.7,2.5-0.7c0.9,0,1.7,0.2,2.5,0.7c0.7,0.5,1.2,1.2,1.6,2c0.3,0.8,0.5,2.1,0.5,3.9v6.7h-1.6v-6.2
			c0-1.5-0.1-2.5-0.2-3c-0.2-0.9-0.5-1.5-1.1-1.9c-0.5-0.4-1.2-0.6-2-0.6c-0.9,0-1.8,0.3-2.6,1c-0.8,0.7-1.3,1.5-1.5,2.5
			c-0.1,0.6-0.2,1.8-0.2,3.5v4.8h-1.6V56.1z M110.3,57.4c-0.9,0-1.8,0.2-2.5,0.7c-0.8,0.5-1.4,1.2-1.8,2c-0.4,0.8-0.7,1.7-0.7,2.6
			c0,0.9,0.2,1.8,0.7,2.7c0.5,0.9,1.1,1.5,1.9,2c0.8,0.5,1.6,0.7,2.5,0.7c0.9,0,1.8-0.2,2.6-0.7c0.8-0.5,1.4-1.1,1.9-1.9
			c0.4-0.8,0.6-1.7,0.6-2.7c0-1.5-0.5-2.8-1.4-3.8c-0.5-0.5-1-0.9-1.6-1.2C111.6,57.5,111,57.4,110.3,57.4L110.3,57.4z M116.8,56.1
			v13.1h-1.6V67c-0.7,0.9-1.5,1.5-2.3,1.9c-0.9,0.4-1.8,0.7-2.8,0.7c-1.8,0-3.4-0.7-4.6-2c-1.3-1.3-1.9-3-1.9-4.9
			c0-1.9,0.7-3.5,1.9-4.8c1.3-1.3,2.8-2,4.7-2c1,0,2,0.2,2.8,0.7c0.9,0.5,1.6,1.2,2.2,2.1v-2.4L116.8,56.1z M119.6,57.3h0.2
			c0.1,0,0.2,0,0.2,0c0,0,0,0,0.1,0c0,0,0,0,0-0.1c0,0,0-0.1,0-0.1c0,0,0-0.1-0.1-0.1c0,0-0.1,0-0.2,0h-0.2V57.3z M119.5,57.9v-1.1
			h0.4c0.1,0,0.2,0,0.3,0c0.1,0,0.1,0.1,0.1,0.1c0,0,0.1,0.1,0.1,0.2c0,0,0,0.1,0,0.1c0,0,0,0.1-0.1,0.1c-0.1,0.1-0.2,0.1-0.2,0.1
			c0.1,0,0.1,0,0.1,0.1c0,0.1,0.1,0.1,0.2,0.2l0.1,0.2h-0.2l-0.1-0.2c-0.1-0.1-0.1-0.2-0.2-0.3c0,0-0.1,0-0.1,0h-0.1v0.5L119.5,57.9
			z M119.9,56.4c-0.1,0-0.3,0-0.4,0.1c-0.1,0.1-0.2,0.2-0.3,0.3c-0.1,0.1-0.1,0.3-0.1,0.4c0,0.1,0,0.3,0.1,0.4
			c0.1,0.1,0.2,0.3,0.3,0.3c0.1,0.1,0.3,0.1,0.4,0.1c0.2,0,0.3,0,0.4-0.1c0.1-0.1,0.2-0.2,0.3-0.3c0.1-0.1,0.1-0.3,0.1-0.4
			c0-0.2,0-0.3-0.1-0.4c-0.1-0.1-0.2-0.2-0.3-0.3C120.2,56.5,120.1,56.4,119.9,56.4z M119.9,56.3c0.2,0,0.3,0,0.5,0.1
			c0.2,0.1,0.3,0.2,0.4,0.4c0.1,0.2,0.1,0.3,0.1,0.5c0,0.2,0,0.4-0.1,0.5c-0.1,0.2-0.2,0.3-0.4,0.4c-0.2,0.1-0.3,0.1-0.5,0.1
			s-0.4,0-0.5-0.1c-0.2-0.1-0.3-0.2-0.4-0.4c-0.1-0.2-0.1-0.3-0.1-0.5c0-0.2,0-0.4,0.1-0.5c0.1-0.2,0.2-0.3,0.4-0.4
			C119.5,56.3,119.7,56.3,119.9,56.3L119.9,56.3z"/>
	</g>
</g>
</svg>
