<?xml version="1.0" encoding="utf-8"?>
<!-- Generator: Adobe Illustrator 21.0.0, SVG Export Plug-In . SVG Version: 6.00 Build 0)  -->
<svg version="1.1" id="图层_1" xmlns="http://www.w3.org/2000/svg" xmlns:xlink="http://www.w3.org/1999/xlink" x="0px" y="0px"
	 viewBox="0 0 128 128" style="enable-background:new 0 0 128 128;" xml:space="preserve">
<style type="text/css">
	.st0{fill:#D81F26;}
</style>
<circle cx="64" cy="64" r="64"/>
<path class="st0" d="M28.3,75.3c-1.5,0.3-3,0.3-4.5,0.5L19,61.9v14.5c-1.5,0.2-2.8,0.4-4.2,0.6V50.4h3.9l5.4,15.1V50.4h4.2V75.3z
	 M36.5,60.1c1.6,0,4.1-0.1,5.6-0.1v4.2c-1.8,0-4,0-5.6,0.1v6.2c2.4-0.2,4.9-0.4,7.4-0.4v4l-11.5,0.9V50.4h11.5v4.2h-7.4V60.1z
	 M59.3,54.5H55v19.1c-1.4,0-2.8,0-4.2,0.1V54.5h-4.3v-4.2h12.8L59.3,54.5z M66.1,59.8h5.7V64h-5.7v9.4H62v-23h11.6v4.2h-7.5V59.8z
	 M80.4,69.8c2.4,0.1,4.8,0.2,7.1,0.4v4.1c-3.7-0.2-7.4-0.5-11.2-0.5V50.4h4.2V69.8z M90.9,74.5c1.3,0.1,2.7,0.2,4.1,0.3V50.4h-4.1
	V74.5z M113.2,50.4L108,63l5.3,14c-1.6-0.2-3.1-0.5-4.7-0.8l-3-7.7l-3,7.1c-1.5-0.3-3-0.3-4.5-0.5l5.4-12.2l-4.8-12.5h4.5l2.7,7
	l2.9-7H113.2z"/>
</svg>
