<?xml version="1.0" encoding="utf-8"?>
<!-- Generator: Adobe Illustrator 21.0.0, SVG Export Plug-In . SVG Version: 6.00 Build 0)  -->
<svg version="1.1" id="图层_1" xmlns="http://www.w3.org/2000/svg" xmlns:xlink="http://www.w3.org/1999/xlink" x="0px" y="0px"
	 viewBox="0 0 128 128" style="enable-background:new 0 0 128 128;" xml:space="preserve">
<style type="text/css">
	.st0{fill:#FFFFFF;}
	.st1{fill:#1A1919;}
	.st2{fill:#76B900;}
</style>
<circle class="st0" cx="64" cy="64" r="64"/>
<path class="st1" d="M56.8,81.5l0,16.1h4.5V81.5L56.8,81.5L56.8,81.5z M21,81.5v16.1h4.6V85.3l3.6,0c1.2,0,2,0.3,2.6,0.9
	c0.7,0.8,1,2,1,4.3v7.1h4.4v-8.9c0-6.4-4.1-7.2-8-7.2L21,81.5L21,81.5z M64.1,81.5v16.1h7.4c3.9,0,5.2-0.7,6.6-2.1
	c1-1,1.6-3.3,1.6-5.8c0-2.3-0.5-4.3-1.5-5.5c-1.7-2.2-4.1-2.7-7.7-2.7H64.1z M68.6,85h2c2.8,0,4.7,1.3,4.7,4.6
	c0,3.3-1.8,4.6-4.7,4.6h-2V85L68.6,85z M50.2,81.5l-3.8,12.8l-3.6-12.8l-4.9,0l5.2,16.1h6.6l5.2-16.1H50.2L50.2,81.5z M81.8,97.6
	h4.5V81.5l-4.5,0L81.8,97.6z M94.5,81.5l-6.3,16.1h4.5l1-2.8h7.5l1,2.8h4.9l-6.4-16.1L94.5,81.5L94.5,81.5z M97.5,84.4l2.8,7.5h-5.6
	L97.5,84.4z"/>
<path class="st2" d="M50.8,43.8v-3.9c0.4,0,0.8,0,1.1-0.1c10.6-0.3,17.5,9.1,17.5,9.1s-7.5,10.4-15.5,10.4c-1.2,0-2.2-0.2-3.1-0.5
	V47.1c4.1,0.5,4.9,2.3,7.4,6.4l5.5-4.6c0,0-4-5.3-10.8-5.3C52.1,43.6,51.4,43.7,50.8,43.8z M50.8,31v5.8c0.4,0,0.8-0.1,1.1-0.1
	c14.7-0.5,24.3,12.1,24.3,12.1s-11,13.4-22.5,13.4c-1.1,0-2-0.1-3-0.3v3.6c0.8,0.1,1.6,0.2,2.5,0.2c10.7,0,18.4-5.4,25.9-11.9
	c1.2,1,6.3,3.4,7.4,4.5c-7.1,5.9-23.7,10.7-33.1,10.7c-0.9,0-1.8,0-2.6-0.1v5h40.6V31L50.8,31L50.8,31z M50.8,58.8v3
	c-9.9-1.8-12.6-12-12.6-12s4.7-5.3,12.6-6.1v3.3c0,0,0,0,0,0c-4.1-0.5-7.4,3.4-7.4,3.4S45.2,57,50.8,58.8z M33.2,49.4
	c0,0,5.8-8.6,17.5-9.5v-3.1c-12.9,1-24.1,12-24.1,12s6.3,18.3,24.1,20v-3.3C37.7,63.8,33.2,49.4,33.2,49.4z"/>
</svg>
