<?xml version="1.0" encoding="utf-8"?>
<!-- Generator: Adobe Illustrator 21.0.0, SVG Export Plug-In . SVG Version: 6.00 Build 0)  -->
<svg version="1.1" id="图层_1" xmlns="http://www.w3.org/2000/svg" xmlns:xlink="http://www.w3.org/1999/xlink" x="0px" y="0px"
	 viewBox="0 0 128 128" style="enable-background:new 0 0 128 128;" xml:space="preserve">
<style type="text/css">
	.st0{fill:#FFFFFF;}
	.st1{fill:#B3D234;}
	.st2{fill:#0095D9;}
	.st3{fill:#EEE809;}
	.st4{fill:#51B849;}
	.st5{fill:#00845D;}
	.st6{fill:#005121;}
</style>
<circle class="st0" cx="64" cy="64" r="64"/>
<path class="st1" d="M45,33.7c1.6-1.9,3.2-3.5,4.6-4.8c-24.3-0.8-17.2,16.9-25.1,34.9c-9.1,20.7,1.1,28.6,16.2,31
	c-2.1-2.5-3.8-5.4-5.1-8.5C25.7,73.8,29.7,51.1,45,33.7z"/>
<path class="st2" d="M103.4,55.7c-2.3,6.4-6.4,13.6-12.3,20.7c-4.6,5.5-9.6,9.9-14.9,13c-6.1,4-13.6,6.3-22,6.3
	c-4.7,0-9.3-0.3-13.6-0.9c2.5,3,5.5,5.4,9.1,7.2c21.9,10.7,23.3-9.2,46.6-19.3C109.4,77,109.4,65.9,103.4,55.7z"/>
<path class="st3" d="M76.2,35c3.2,0.6,6.3,1.7,9.1,3.2c7.4,4.2,14.1,10.6,18.1,17.4c4-11.2,2.1-20-6.5-21.6
	c-9.5-1.8-16.9-2.3-24.1-7.3c-8.8-6.2-16.5-4.1-23.2,2.1c0.5,0,1,0,1.5,0.1C60.3,29.5,69.2,31.3,76.2,35z"/>
<path class="st4" d="M45,33.7c-15.3,17.4-19.3,40.2-9.4,52.6c-4.4-10.4-4.1-23.5,2.1-33.9C46,38.6,62.6,32.5,76.2,35.1
	c-7.1-3.8-15.9-5.6-25.2-6.1c-0.5,0-1,0-1.5-0.1C48.1,30.2,46.6,31.8,45,33.7z"/>
<path class="st5" d="M85.3,38.3c-2.8-1.6-5.8-2.6-9.1-3.2c9.3,5,15.5,13.3,15.4,26.5c-0.1,11.5-6,21.7-15.4,27.8
	c5.2-3.1,10.3-7.5,14.9-13c5.9-7.1,10-14.3,12.3-20.7C99.4,48.9,92.7,42.5,85.3,38.3z"/>
<path class="st6" d="M74.7,83.1c-10.5,6.8-24.5,3.8-31.3-6.8c-6.8-10.6-3.4-24.1,6.8-31.4c11.4-8.2,26-4.9,31.3,6.8
	C86.6,63.1,85.2,76.3,74.7,83.1z M76.2,35C62.6,32.5,46,38.6,37.7,52.4c-6.2,10.4-6.5,23.4-2.1,33.9c1.3,3.1,3,6,5.1,8.5
	c4.2,0.7,8.9,0.9,13.6,0.9c8.4,0,15.9-2.3,22-6.3c9.5-6.2,15.4-16.3,15.4-27.8C91.7,48.3,85.5,40,76.2,35z"/>
</svg>
