<?xml version="1.0" encoding="utf-8"?>
<!-- Generator: Adobe Illustrator 21.0.0, SVG Export Plug-In . SVG Version: 6.00 Build 0)  -->
<svg version="1.1" id="图层_1" xmlns="http://www.w3.org/2000/svg" xmlns:xlink="http://www.w3.org/1999/xlink" x="0px" y="0px"
	 viewBox="0 0 128 128" style="enable-background:new 0 0 128 128;" xml:space="preserve">
<style type="text/css">
	.st0{fill:none;}
	.st1{fill:#EF5350;}
	.st2{fill:#1565C0;}
	.st3{fill:#F8F9FD;}
	.st4{fill:#FDD835;}
</style>
<g>
	<path class="st0" d="M64,0C28.7,0,0,28.7,0,64h128C128,28.7,99.3,0,64,0z"/>
	<path class="st1" d="M128,64H0c0,35.3,28.7,64,64,64S128,99.3,128,64z"/>
</g>
<g>
	<path class="st0" d="M64,128c35.3,0,64-28.7,64-64H0C0,99.3,28.7,128,64,128z"/>
	<path class="st2" d="M64,0C28.7,0,0,28.7,0,64h128C128,28.7,99.3,0,64,0z"/>
</g>
<g>
	<path class="st0" d="M64,0C47.3,0,32.1,6.4,20.7,16.9L78.2,64l-57.6,47.1C32.1,121.6,47.3,128,64,128c35.3,0,64-28.7,64-64
		C128,28.7,99.3,0,64,0z"/>
	<path class="st3" d="M20.7,16.9C8,28.6,0,45.4,0,64s8,35.4,20.7,47.1L78.2,64L20.7,16.9z"/>
	<path class="st3" d="M20.7,16.9C8,28.6,0,45.4,0,64s8,35.4,20.7,47.1L78.2,64L20.7,16.9z"/>
</g>
<path class="st4" d="M56.9,64l-10.7,5.3v5.3h-5.3l-5.3,10.7l-5.3-10.7h-5.3v-6.4L14.2,64l10.7-4.3v-6.4h5.3l5.3-10.7l5.3,10.7h5.3
	v6.4L56.9,64z"/>
</svg>
