<?xml version="1.0" encoding="utf-8"?>
<!-- Generator: Adobe Illustrator 21.0.0, SVG Export Plug-In . SVG Version: 6.00 Build 0)  -->
<svg version="1.1" id="图层_1" xmlns="http://www.w3.org/2000/svg" xmlns:xlink="http://www.w3.org/1999/xlink" x="0px" y="0px"
	 viewBox="0 0 128 128" style="enable-background:new 0 0 128 128;" xml:space="preserve">
<style type="text/css">
	.st0{fill:#E82127;}
	.st1{fill:#FFFFFF;}
</style>
<circle class="st0" cx="64" cy="64" r="64"/>
<path class="st1" d="M64,107.7l10.9-61.4c10.4,0,13.7,1.1,14.2,5.8c0,0,7-2.6,10.5-7.9C85.8,37.8,72,37.6,72,37.6L64,47.4l0,0
	L56,37.6c0,0-13.8,0.3-27.5,6.7c3.5,5.3,10.5,7.9,10.5,7.9c0.5-4.7,3.8-5.8,14.1-5.8L64,107.7z"/>
<path class="st1" d="M64,34.7c11.1-0.1,23.8,1.7,36.8,7.4c1.7-3.1,2.2-4.5,2.2-4.5C88.8,32,75.5,30,64,30c-11.5,0-24.8,2-39,7.6
	c0,0,0.6,1.7,2.2,4.5C40.2,36.4,52.9,34.6,64,34.7L64,34.7z"/>
</svg>
