<?xml version="1.0" encoding="utf-8"?>
<!-- Generator: Adobe Illustrator 21.0.0, SVG Export Plug-In . SVG Version: 6.00 Build 0)  -->
<svg version="1.1" id="图层_1" xmlns="http://www.w3.org/2000/svg" xmlns:xlink="http://www.w3.org/1999/xlink" x="0px" y="0px"
	 viewBox="0 0 128 128" style="enable-background:new 0 0 128 128;" xml:space="preserve">
<style type="text/css">
	.st0{fill:#FFFFFF;}
	.st1{fill:#221815;}
	.st2{fill:#E60012;}
</style>
<circle class="st0" cx="64" cy="64" r="64"/>
<path class="st1" d="M24.1,65.9c0-22,18-40,40-40c22,0,40,18,40,40c0,16.2-9.7,30.2-23.6,36.5l-0.1,0H63.7h0l-15.9-0.1v0.1l-0.4-0.2
	C33.7,96,24.1,82,24.1,65.9z M47.7,101.8l16.1,0.1h0h16.6c13.7-6.2,23.3-20,23.3-36c0-21.7-17.7-39.5-39.4-39.5
	c-21.7,0-39.5,17.8-39.5,39.5C24.6,81.8,34.1,95.6,47.7,101.8z"/>
<path class="st0" d="M32.5,47.4v-5.4c-1.3,1.7-2.5,3.5-3.5,5.4H32.5z"/>
<path class="st1" d="M32.7,41.1v6.5h-4.2l0.2-0.4c1-1.9,2.2-3.7,3.5-5.5L32.7,41.1z M29.4,47.1h2.8v-4.4
	C31.2,44.1,30.3,45.6,29.4,47.1z"/>
<path class="st0" d="M91.8,37.4v3.9h3.5C94.2,39.9,93,38.6,91.8,37.4"/>
<path class="st1" d="M91.1,37.1H92v0.2c1.2,1.2,2.4,2.5,3.5,3.9l0.3,0.4h-4.4v-4.1L91.1,37.1z M92,38.1v3h2.7C93.9,40,93,39,92,38.1
	z"/>
<path class="st0" d="M72,26.9v2.2h3.9v-1.2C74.6,27.5,73.3,27.2,72,26.9"/>
<path class="st1" d="M71.7,26.6l0.3,0.1c1.3,0.3,2.6,0.6,3.9,1l0.2,0.1v1.7h-4.4V26.6z M72.3,27.3v1.6h3.3v-0.8
	C74.5,27.8,73.4,27.5,72.3,27.3z"/>
<path class="st0" d="M40.3,47.4h-3.9v-6.1h3.9L40.3,47.4z"/>
<path class="st1" d="M36.2,41h4.4l0,6.6h-4.4V41z M36.7,41.5v5.6h3.3l0-5.6H36.7z"/>
<path class="st0" d="M40.3,53.5h-3.9v-6.1h3.9L40.3,53.5z"/>
<path class="st1" d="M36.2,47.1h4.4l0,6.6h-4.4V47.1z M36.7,47.7v5.6h3.3l0-5.6H36.7z"/>
<path class="st0" d="M40.3,59.5h-3.9v-6.1h3.9L40.3,59.5z M40.3,65.6h-3.9v-6.1h3.9L40.3,65.6z"/>
<path class="st1" d="M36.2,53.2h4.4l0,6.1h0l0,6.6h-4.4V53.2z M36.7,59.8v5.6h3.3l0-5.6H36.7z M40.1,59.3h-3.3v-5.6h3.3L40.1,59.3z"
	/>
<path class="st0" d="M40.3,71.7h-3.9v-6.1h3.9L40.3,71.7z M40.3,77.8h-3.9v-6.1h3.9L40.3,77.8z"/>
<path class="st1" d="M36.2,65.3h4.4l0,6.1h0l0,6.7h-4.4V65.3z M36.7,72v5.6h3.3l0-5.6H36.7z M40.1,71.4h-3.3v-5.6h3.3L40.1,71.4z"/>
<path class="st0" d="M40.3,83.9h-3.9v-6.1h3.9L40.3,83.9z"/>
<path class="st1" d="M36.2,77.5h4.4l0,6.6h-4.4V77.5z M36.7,78v5.6h3.3l0-5.6H36.7z"/>
<path class="st0" d="M40.3,89.9h-3.9v-6.1h3.9L40.3,89.9z M36.4,53.5h-3.8v-6.1h3.8V53.5z"/>
<path class="st1" d="M32.3,47.1h4.4v6.6h-4.4V47.1z M32.8,47.7v5.6h3.3v-5.6H32.8z M36.2,83.5h4.4l0,6.7h-4.4V83.5z M36.7,84.1v5.6
	h3.3l0-5.6H36.7z"/>
<path class="st0" d="M36.4,59.5h-3.8v-6.1h3.8V59.5z M36.4,65.6h-3.8v-6.1h3.8V65.6z"/>
<path class="st1" d="M32.3,53.2h4.4v12.8h-4.4V53.2z M32.8,59.8v5.6h3.3v-5.6H32.8z M36.1,59.3h-3.3v-5.6h3.3V59.3z"/>
<path class="st0" d="M36.4,71.7h-3.8v-6.1h3.8V71.7z M36.4,77.8h-3.8v-6.1h3.8V77.8z"/>
<path class="st1" d="M32.3,65.3h4.4v12.7h-4.4V65.3z M32.8,72v5.6h3.3V72H32.8z M36.1,71.4h-3.3v-5.6h3.3V71.4z"/>
<path class="st0" d="M36.4,83.9h-3.8v-6.1h3.8V83.9z"/>
<path class="st1" d="M32.3,77.5h4.4v6.6h-4.4V77.5z M32.8,78v5.6h3.3V78H32.8z"/>
<path class="st0" d="M36.4,89.9h-3.8v-6.1h3.8V89.9z M32.5,59.5h-3.9v-6.1h3.9V59.5z M32.5,65.6h-3.9v-6.1h3.9V65.6z"/>
<path class="st1" d="M28.3,53.2h4.4v12.8h-4.4V53.2z M28.9,59.8v5.6h3.3v-5.6H28.9z M32.2,59.3h-3.3v-5.6h3.3V59.3z M32.3,83.5h4.4
	v6.7h-4.4V83.5z M32.8,84.1v5.6h3.3v-5.6H32.8z"/>
<path class="st0" d="M32.5,71.7h-3.9v-6.1h3.9V71.7z M32.5,77.8h-3.9v-6.1h3.9V77.8z M44.3,41.3h-3.8v-6.1h3.8V41.3z"/>
<path class="st1" d="M40.2,35h4.4v6.6h-4.4V35z M40.7,35.5v5.6H44v-5.6H40.7z M28.3,65.3h4.4v12.7h-4.4V65.3z M28.9,72v5.6h3.3V72
	H28.9z M32.2,71.4h-3.3v-5.6h3.3V71.4z"/>
<path class="st0" d="M44.3,47.4h-3.8v-6.1h3.8V47.4z"/>
<path class="st1" d="M40.2,41h4.4v6.6h-4.4V41z M40.7,41.5v5.6H44v-5.6H40.7z"/>
<path class="st0" d="M44.3,53.5h-3.8v-6.1h3.8V53.5z"/>
<path class="st1" d="M40.2,47.1h4.4v6.6h-4.4V47.1z M40.7,47.7v5.6H44v-5.6H40.7z"/>
<path class="st0" d="M44.3,59.5h-3.8v-6.1h3.8V59.5z M44.3,65.6h-3.8v-6.1h3.8V65.6z"/>
<path class="st1" d="M40.2,53.2h4.4v12.8h-4.4V53.2z M40.7,59.8v5.6H44v-5.6H40.7z M44,59.3h-3.3v-5.6H44V59.3z"/>
<path class="st0" d="M44.3,71.7h-3.8v-6.1h3.8V71.7z M44.3,77.8h-3.8v-6.1h3.8V77.8z"/>
<path class="st1" d="M40.2,65.3h4.4v12.7h-4.4V65.3z M40.7,72v5.6H44V72H40.7z M44,71.4h-3.3v-5.6H44V71.4z"/>
<path class="st0" d="M44.3,83.9h-3.8v-6.1h3.8V83.9z"/>
<path class="st1" d="M40.2,77.5h4.4v6.6h-4.4V77.5z M40.7,78v5.6H44V78H40.7z"/>
<path class="st0" d="M44.3,89.9h-3.8v-6.1h3.8V89.9z M44.3,96h-3.8v-6.1h3.8V96z"/>
<path class="st1" d="M40.2,83.5h4.4v12.8h-4.4V83.5z M40.7,90.2v5.6H44v-5.6H40.7z M44,89.6h-3.3v-5.6H44V89.6z"/>
<path class="st1" d="M48.3,41.3h-3.9v-6.1h3.9L48.3,41.3z"/>
<path class="st1" d="M44.1,35h4.4l0,6.6h-4.4V35z M44.7,35.5v5.6H48l0-5.6H44.7z"/>
<path class="st0" d="M48.3,47.4h-3.9v-6.1h3.9L48.3,47.4z"/>
<path class="st1" d="M44.1,41h4.4l0,6.6h-4.4V41z M44.7,41.5v5.6H48l0-5.6H44.7z"/>
<path class="st0" d="M48.3,53.5h-3.9v-6.1h3.9L48.3,53.5z"/>
<path class="st1" d="M44.1,47.1h4.4l0,6.6h-4.4V47.1z M44.7,47.7v5.6H48l0-5.6H44.7z"/>
<path class="st0" d="M48.3,59.5h-3.9v-6.1h3.9L48.3,59.5z M48.3,65.6h-3.9v-6.1h3.9L48.3,65.6z"/>
<path class="st1" d="M44.1,53.2h4.4l0,6.6h0l0,6.1h-4.4V53.2z M44.7,59.8v5.6H48l0-5.6H44.7z M48,59.3h-3.3v-5.6H48L48,59.3z"/>
<path class="st0" d="M48.3,71.7h-3.9v-6.1h3.9L48.3,71.7z M48.3,77.8h-3.9v-6.1h3.9L48.3,77.8z"/>
<path class="st1" d="M44.1,65.3h4.4l0,6.6h0l0,6.1h-4.4V65.3z M44.7,72v5.6H48l0-5.6H44.7z M48,71.4h-3.3v-5.6H48L48,71.4z"/>
<path class="st0" d="M48.3,83.9h-3.9v-6.1h3.9L48.3,83.9z"/>
<path class="st1" d="M44.1,77.5h4.4l0,6.6h-4.4V77.5z M44.7,78v5.6H48l0-5.6H44.7z"/>
<path class="st0" d="M48.3,89.9h-3.9v-6.1h3.9L48.3,89.9z"/>
<path class="st1" d="M44.1,83.5h4.4l0,6.7h-4.4V83.5z M44.7,84.1v5.6H48l0-5.6H44.7z"/>
<path class="st1" d="M48.3,96h-3.9v-6.1h3.9L48.3,96z"/>
<path class="st1" d="M44.1,89.6h4.4l0,6.6h-4.4V89.6z M44.7,90.2v5.6H48l0-5.6H44.7z"/>
<path class="st0" d="M52.2,41.3h-3.8v-6.1h3.8V41.3z"/>
<path class="st1" d="M48,35h4.4v6.6H48V35z M48.6,35.5v5.6h3.3v-5.6H48.6z"/>
<path class="st1" d="M52.2,47.4h-3.8v-6.1h3.8V47.4z"/>
<path class="st1" d="M48,41h4.4v6.6H48V41z M48.6,41.5v5.6h3.3v-5.6H48.6z"/>
<path class="st0" d="M52.2,53.5h-3.8v-6.1h3.8V53.5z"/>
<path class="st1" d="M48,47.1h4.4v6.6H48V47.1z M48.6,47.7v5.6h3.3v-5.6H48.6z"/>
<path class="st0" d="M52.2,59.5h-3.8v-6.1h3.8V59.5z M52.2,65.6h-3.8v-6.1h3.8V65.6z"/>
<path class="st1" d="M48,53.2h4.4v12.8H48V53.2z M48.6,59.8v5.6h3.3v-5.6H48.6z M51.9,59.3h-3.3v-5.6h3.3V59.3z"/>
<path class="st0" d="M52.2,71.7h-3.8v-6.1h3.8V71.7z M52.2,77.8h-3.8v-6.1h3.8V77.8z"/>
<path class="st1" d="M48,65.3h4.4v12.7H48V65.3z M48.6,72v5.6h3.3V72H48.6z M51.9,71.4h-3.3v-5.6h3.3V71.4z"/>
<path class="st0" d="M52.2,83.9h-3.8v-6.1h3.8V83.9z"/>
<path class="st1" d="M48,77.5h4.4v6.6H48V77.5z M48.6,78v5.6h3.3V78H48.6z"/>
<path class="st1" d="M52.2,89.9h-3.8v-6.1h3.8V89.9z"/>
<path class="st1" d="M48,83.5h4.4v6.7H48V83.5z M48.6,84.1v5.6h3.3v-5.6H48.6z"/>
<path class="st0" d="M52.2,96h-3.8v-6.1h3.8V96z"/>
<path class="st1" d="M48,89.6h4.4v6.6H48V89.6z M48.6,90.2v5.6h3.3v-5.6H48.6z"/>
<path class="st1" d="M52.2,102.1h-3.8v-6.1h3.8V102.1z"/>
<path class="st1" d="M48,95.7h4.4v6.6H48V95.7z M48.6,96.2v5.6h3.3v-5.6H48.6z"/>
<path class="st0" d="M56.1,41.3h-3.9v-6.1h3.9V41.3z"/>
<path class="st1" d="M52,35h4.4v6.6H52V35z M52.5,35.5v5.6h3.3v-5.6H52.5z"/>
<path class="st0" d="M56.1,35.2h-3.9v-6.1h3.9V35.2z M56.1,47.4h-3.9v-6.1h3.9V47.4z"/>
<path class="st1" d="M52,28.9h4.4v6.6H52V28.9z M52.5,29.4V35h3.3v-5.6H52.5z M52,41h4.4v6.6H52V41z M52.5,41.5v5.6h3.3v-5.6H52.5z"
	/>
<path class="st0" d="M56.1,53.5h-3.9v-6.1h3.9V53.5z"/>
<path class="st1" d="M52,47.1h4.4v6.6H52V47.1z M52.5,47.7v5.6h3.3v-5.6H52.5z"/>
<path class="st0" d="M56.1,59.5h-3.9v-6.1h3.9V59.5z M56.1,65.6h-3.9v-6.1h3.9V65.6z"/>
<path class="st1" d="M52,53.2h4.4v12.8H52V53.2z M52.5,59.8v5.6h3.3v-5.6H52.5z M55.9,59.3h-3.3v-5.6h3.3V59.3z"/>
<path class="st0" d="M56.1,71.7h-3.9v-6.1h3.9V71.7z M56.1,77.8h-3.9v-6.1h3.9V77.8z"/>
<path class="st1" d="M52,65.3h4.4v12.7H52V65.3z M52.5,72v5.6h3.3V72H52.5z M55.9,71.4h-3.3v-5.6h3.3V71.4z"/>
<path class="st0" d="M56.1,83.9h-3.9v-6.1h3.9V83.9z"/>
<path class="st1" d="M52,77.5h4.4v6.6H52V77.5z M52.5,78v5.6h3.3V78H52.5z"/>
<path class="st0" d="M56.1,89.9h-3.9v-6.1h3.9V89.9z"/>
<path class="st1" d="M52,83.5h4.4v6.7H52V83.5z M52.5,84.1v5.6h3.3v-5.6H52.5z"/>
<path class="st1" d="M56.1,96h-3.9v-6.1h3.9V96z"/>
<path class="st1" d="M52,89.6h4.4v6.6H52V89.6z M52.5,90.2v5.6h3.3v-5.6H52.5z"/>
<path class="st0" d="M56.1,102.1h-3.9v-6.1h3.9V102.1z M60.1,41.3h-3.8v-6.1h3.8V41.3z"/>
<path class="st1" d="M56,35h4.4v6.6H56V35z M56.5,35.5v5.6h3.3v-5.6H56.5z M52,95.7h4.4v6.6H52V95.7z M52.5,96.2v5.6h3.3v-5.6H52.5z
	"/>
<path class="st0" d="M60.1,35.2h-3.8v-6.1h3.8V35.2z M60.1,47.4h-3.8v-6.1h3.8V47.4z"/>
<path class="st1" d="M56,28.9h4.4v6.6H56V28.9z M56.5,29.4V35h3.3v-5.6H56.5z M56,41h4.4v6.6H56V41z M56.5,41.5v5.6h3.3v-5.6H56.5z"
	/>
<path class="st0" d="M60.1,53.5h-3.8v-6.1h3.8V53.5z"/>
<path class="st1" d="M56,47.1h4.4v6.6H56V47.1z M56.5,47.7v5.6h3.3v-5.6H56.5z"/>
<path class="st0" d="M60.1,59.5h-3.8v-6.1h3.8V59.5z M60.1,65.6h-3.8v-6.1h3.8V65.6z"/>
<path class="st1" d="M56,53.2h4.4v12.8H56V53.2z M56.5,59.8v5.6h3.3v-5.6H56.5z M59.8,59.3h-3.3v-5.6h3.3V59.3z"/>
<path class="st0" d="M60.1,71.7h-3.8v-6.1h3.8V71.7z M60.1,77.8h-3.8v-6.1h3.8V77.8z"/>
<path class="st1" d="M56,65.3h4.4v12.7H56V65.3z M56.5,72v5.6h3.3V72H56.5z M59.8,71.4h-3.3v-5.6h3.3V71.4z"/>
<path class="st0" d="M60.1,83.9h-3.8v-6.1h3.8V83.9z"/>
<path class="st1" d="M56,77.5h4.4v6.6H56V77.5z M56.5,78v5.6h3.3V78H56.5z"/>
<path class="st0" d="M60.1,89.9h-3.8v-6.1h3.8V89.9z M60.1,96h-3.8v-6.1h3.8V96z"/>
<path class="st1" d="M56,83.5h4.4v12.8H56V83.5z M56.5,90.2v5.6h3.3v-5.6H56.5z M59.8,89.6h-3.3v-5.6h3.3V89.6z"/>
<path class="st0" d="M60.1,102.1h-3.8v-6.1h3.8V102.1z M64,41.3h-3.9v-6.1H64V41.3z"/>
<path class="st1" d="M59.9,35h4.4v6.6h-4.4V35z M60.5,35.5v5.6h3.3v-5.6H60.5z M56,95.7h4.4v6.6H56V95.7z M56.5,96.2v5.6h3.3v-5.6
	H56.5z"/>
<path class="st1" d="M64,35.2h-3.9v-6.1H64V35.2z"/>
<path class="st1" d="M59.9,28.9h4.4v6.6h-4.4V28.9z M60.5,29.4V35h3.3v-5.6H60.5z"/>
<path class="st0" d="M64,47.4h-3.9v-6.1H64V47.4z"/>
<path class="st1" d="M59.9,41h4.4v6.6h-4.4V41z M60.5,41.5v5.6h3.3v-5.6H60.5z"/>
<path class="st0" d="M64,53.5h-3.9v-6.1H64V53.5z"/>
<path class="st1" d="M59.9,47.1h4.4v6.6h-4.4V47.1z M60.5,47.7v5.6h3.3v-5.6H60.5z"/>
<path class="st0" d="M64,59.5h-3.9v-6.1H64V59.5z M64,65.6h-3.9v-6.1H64V65.6z"/>
<path class="st1" d="M59.9,53.2h4.4v12.8h-4.4V53.2z M60.5,59.8v5.6h3.3v-5.6H60.5z M63.8,59.3h-3.3v-5.6h3.3V59.3z"/>
<path class="st0" d="M64,71.7h-3.9v-6.1H64V71.7z M64,77.8h-3.9v-6.1H64V77.8z"/>
<path class="st1" d="M59.9,65.3h4.4v12.7h-4.4V65.3z M60.5,72v5.6h3.3V72H60.5z M63.8,71.4h-3.3v-5.6h3.3V71.4z"/>
<path class="st0" d="M64,83.9h-3.9v-6.1H64V83.9z"/>
<path class="st1" d="M59.9,77.5h4.4v6.6h-4.4V77.5z M60.5,78v5.6h3.3V78H60.5z"/>
<path class="st0" d="M64,89.9h-3.9v-6.1H64V89.9z M64,96h-3.9v-6.1H64V96z"/>
<path class="st1" d="M59.9,83.5h4.4v12.8h-4.4V83.5z M60.5,90.2v5.6h3.3v-5.6H60.5z M63.8,89.6h-3.3v-5.6h3.3V89.6z"/>
<path class="st0" d="M64,102.1h-3.9v-6.1H64V102.1z M68,41.3h-3.8v-6.1H68V41.3z"/>
<path class="st1" d="M63.9,35h4.4v6.6h-4.4V35z M64.4,35.5v5.6h3.3v-5.6H64.4z M59.9,95.7h4.4v6.6h-4.4V95.7z M60.5,96.2v5.6h3.3
	v-5.6H60.5z"/>
<path class="st0" d="M68,35.2h-3.8v-6.1H68V35.2z M68,47.4h-3.8v-6.1H68V47.4z"/>
<path class="st1" d="M63.9,28.9h4.4v6.6h-4.4V28.9z M64.4,29.4V35h3.3v-5.6H64.4z M63.9,41h4.4v6.6h-4.4V41z M64.4,41.5v5.6h3.3
	v-5.6H64.4z"/>
<path class="st0" d="M68,53.5h-3.8v-6.1H68V53.5z"/>
<path class="st1" d="M63.9,47.1h4.4v6.6h-4.4V47.1z M64.4,47.7v5.6h3.3v-5.6H64.4z"/>
<path class="st0" d="M68,59.5h-3.8v-6.1H68V59.5z M68,65.6h-3.8v-6.1H68V65.6z"/>
<path class="st1" d="M63.9,53.2h4.4v12.8h-4.4V53.2z M64.4,59.8v5.6h3.3v-5.6H64.4z M67.7,59.3h-3.3v-5.6h3.3V59.3z"/>
<path class="st0" d="M68,71.7h-3.8v-6.1H68V71.7z M68,77.8h-3.8v-6.1H68V77.8z"/>
<path class="st1" d="M63.9,65.3h4.4v12.7h-4.4V65.3z M64.4,72v5.6h3.3V72H64.4z M67.7,71.4h-3.3v-5.6h3.3V71.4z"/>
<path class="st0" d="M68,83.9h-3.8v-6.1H68V83.9z"/>
<path class="st1" d="M63.9,77.5h4.4v6.6h-4.4V77.5z M64.4,78v5.6h3.3V78H64.4z"/>
<path class="st1" d="M68,89.9h-3.8v-6.1H68V89.9z"/>
<path class="st1" d="M63.9,83.5h4.4v6.7h-4.4V83.5z M64.4,84.1v5.6h3.3v-5.6H64.4z"/>
<path class="st0" d="M68,96h-3.8v-6.1H68V96z"/>
<path class="st1" d="M63.9,89.6h4.4v6.6h-4.4V89.6z M64.4,90.2v5.6h3.3v-5.6H64.4z"/>
<path class="st0" d="M68,102.1h-3.8v-6.1H68V102.1z M71.9,41.3h-3.8v-6.1h3.8V41.3z"/>
<path class="st1" d="M67.8,35h4.4v6.6h-4.4V35z M68.3,35.5v5.6h3.3v-5.6H68.3z M63.9,95.7h4.4v6.6h-4.4V95.7z M64.4,96.2v5.6h3.3
	v-5.6H64.4z"/>
<path class="st0" d="M71.9,35.2h-3.8v-6.1h3.8V35.2z M71.9,47.4h-3.8v-6.1h3.8V47.4z"/>
<path class="st1" d="M67.8,28.9h4.4v6.6h-4.4V28.9z M68.3,29.4V35h3.3v-5.6H68.3z M67.8,41h4.4v6.6h-4.4V41z M68.3,41.5v5.6h3.3
	v-5.6H68.3z"/>
<path class="st0" d="M71.9,53.5h-3.8v-6.1h3.8V53.5z"/>
<path class="st1" d="M67.8,47.1h4.4v6.6h-4.4V47.1z M68.3,47.7v5.6h3.3v-5.6H68.3z"/>
<path class="st0" d="M71.9,59.5h-3.8v-6.1h3.8V59.5z M71.9,65.6h-3.8v-6.1h3.8V65.6z"/>
<path class="st1" d="M67.8,53.2h4.4v12.8h-4.4V53.2z M68.3,59.8v5.6h3.3v-5.6H68.3z M71.6,59.3h-3.3v-5.6h3.3V59.3z"/>
<path class="st0" d="M71.9,71.7h-3.8v-6.1h3.8V71.7z M71.9,77.8h-3.8v-6.1h3.8V77.8z"/>
<path class="st1" d="M67.8,65.3h4.4v12.7h-4.4V65.3z M68.3,72v5.6h3.3V72H68.3z M71.6,71.4h-3.3v-5.6h3.3V71.4z"/>
<path class="st0" d="M71.9,83.9h-3.8v-6.1h3.8V83.9z"/>
<path class="st1" d="M67.8,77.5h4.4v6.6h-4.4V77.5z M68.3,78v5.6h3.3V78H68.3z"/>
<path class="st0" d="M71.9,89.9h-3.8v-6.1h3.8V89.9z M71.9,96h-3.8v-6.1h3.8V96z"/>
<path class="st1" d="M67.8,83.5h4.4v12.8h-4.4V83.5z M68.3,90.2v5.6h3.3v-5.6H68.3z M71.6,89.6h-3.3v-5.6h3.3V89.6z"/>
<path class="st0" d="M71.9,102.1h-3.8v-6.1h3.8V102.1z M75.9,41.3H72v-6.1h3.9V41.3z"/>
<path class="st1" d="M71.7,35h4.4v6.6h-4.4V35z M72.3,35.5v5.6h3.3v-5.6H72.3z M67.8,95.7h4.4v6.6h-4.4V95.7z M68.3,96.2v5.6h3.3
	v-5.6H68.3z"/>
<path class="st0" d="M75.9,35.2H72v-6.1h3.9V35.2z M75.9,47.4H72v-6.1h3.9V47.4z"/>
<path class="st1" d="M71.7,28.9h4.4v6.6h-4.4V28.9z M72.3,29.4V35h3.3v-5.6H72.3z M71.7,41h4.4v6.6h-4.4V41z M72.3,41.5v5.6h3.3
	v-5.6H72.3z"/>
<path class="st0" d="M75.9,53.5H72v-6.1h3.9V53.5z"/>
<path class="st1" d="M71.7,47.1h4.4v6.6h-4.4V47.1z M72.3,47.7v5.6h3.3v-5.6H72.3z"/>
<path class="st0" d="M75.9,59.5H72v-6.1h3.9V59.5z M75.9,65.6H72v-6.1h3.9V65.6z"/>
<path class="st1" d="M71.7,53.2h4.4v12.8h-4.4V53.2z M72.3,59.8v5.6h3.3v-5.6H72.3z M75.6,59.3h-3.3v-5.6h3.3V59.3z"/>
<path class="st0" d="M75.9,71.7H72v-6.1h3.9V71.7z M75.9,77.8H72v-6.1h3.9V77.8z"/>
<path class="st1" d="M71.7,65.3h4.4v12.7h-4.4V65.3z M72.3,72v5.6h3.3V72H72.3z M75.6,71.4h-3.3v-5.6h3.3V71.4z"/>
<path class="st0" d="M75.9,83.9H72v-6.1h3.9V83.9z"/>
<path class="st1" d="M71.7,77.5h4.4v6.6h-4.4V77.5z M72.3,78v5.6h3.3V78H72.3z"/>
<path class="st0" d="M75.9,89.9H72v-6.1h3.9V89.9z M75.9,96H72v-6.1h3.9V96z"/>
<path class="st1" d="M71.7,83.5h4.4v12.8h-4.4V83.5z M72.3,90.2v5.6h3.3v-5.6H72.3z M75.6,89.6h-3.3v-5.6h3.3V89.6z"/>
<path class="st0" d="M75.9,102.1H72v-6.1h3.9V102.1z M79.8,41.3H76v-6.1h3.8V41.3z"/>
<path class="st1" d="M75.7,35h4.4v6.6h-4.4V35z M76.2,35.5v5.6h3.3v-5.6H76.2z M71.7,95.7h4.4v6.6h-4.4V95.7z M72.3,96.2v5.6h3.3
	v-5.6H72.3z"/>
<path class="st0" d="M79.8,47.4H76v-6.1h3.8V47.4z"/>
<path class="st1" d="M75.7,41h4.4v6.6h-4.4V41z M76.2,41.5v5.6h3.3v-5.6H76.2z"/>
<path class="st0" d="M79.8,53.5H76v-6.1h3.8V53.5z"/>
<path class="st1" d="M75.7,47.1h4.4v6.6h-4.4V47.1z M76.2,47.7v5.6h3.3v-5.6H76.2z"/>
<path class="st0" d="M79.8,59.5H76v-6.1h3.8V59.5z M79.8,65.6H76v-6.1h3.8V65.6z"/>
<path class="st1" d="M75.7,53.2h4.4v12.8h-4.4V53.2z M76.2,59.8v5.6h3.3v-5.6H76.2z M79.5,59.3h-3.3v-5.6h3.3V59.3z"/>
<path class="st0" d="M79.8,71.7H76v-6.1h3.8V71.7z M79.8,77.8H76v-6.1h3.8V77.8z"/>
<path class="st1" d="M75.7,65.3h4.4v12.7h-4.4V65.3z M76.2,72v5.6h3.3V72H76.2z M79.5,71.4h-3.3v-5.6h3.3V71.4z"/>
<path class="st0" d="M79.8,83.9H76v-6.1h3.8V83.9z"/>
<path class="st1" d="M75.7,77.5h4.4v6.6h-4.4V77.5z M76.2,78v5.6h3.3V78H76.2z"/>
<path class="st0" d="M79.8,89.9H76v-6.1h3.8V89.9z M79.8,96H76v-6.1h3.8V96z"/>
<path class="st1" d="M75.7,83.5h4.4v12.8h-4.4V83.5z M76.2,90.2v5.6h3.3v-5.6H76.2z M79.5,89.6h-3.3v-5.6h3.3V89.6z"/>
<path class="st0" d="M79.8,102.1H76v-6.1h3.8V102.1z M83.8,41.3h-3.9v-6.1h3.9V41.3z"/>
<path class="st1" d="M79.7,35h4.4v6.6h-4.4V35z M80.2,35.5v5.6h3.3v-5.6H80.2z M75.7,95.7h4.4v6.6h-4.4V95.7z M76.2,96.2v5.6h3.3
	v-5.6H76.2z"/>
<path class="st1" d="M83.8,47.4h-3.9v-6.1h3.9V47.4z"/>
<path class="st1" d="M79.7,41h4.4v6.6h-4.4V41z M80.2,41.5v5.6h3.3v-5.6H80.2z"/>
<path class="st0" d="M83.8,53.5h-3.9v-6.1h3.9V53.5z"/>
<path class="st1" d="M79.7,47.1h4.4v6.6h-4.4V47.1z M80.2,47.7v5.6h3.3v-5.6H80.2z"/>
<path class="st0" d="M83.8,59.5h-3.9v-6.1h3.9V59.5z M83.8,65.6h-3.9v-6.1h3.9V65.6z"/>
<path class="st1" d="M79.7,53.2h4.4v12.8h-4.4V53.2z M80.2,59.8v5.6h3.3v-5.6H80.2z M83.5,59.3h-3.3v-5.6h3.3V59.3z"/>
<path class="st0" d="M83.8,71.7h-3.9v-6.1h3.9V71.7z M83.8,77.8h-3.9v-6.1h3.9V77.8z"/>
<path class="st1" d="M79.7,65.3h4.4v12.7h-4.4V65.3z M80.2,72v5.6h3.3V72H80.2z M83.5,71.4h-3.3v-5.6h3.3V71.4z"/>
<path class="st0" d="M83.8,83.9h-3.9v-6.1h3.9V83.9z"/>
<path class="st1" d="M79.7,77.5h4.4v6.6h-4.4V77.5z M80.2,78v5.6h3.3V78H80.2z"/>
<path class="st0" d="M83.8,89.9h-3.9v-6.1h3.9V89.9z"/>
<path class="st1" d="M79.7,83.5h4.4v6.7h-4.4V83.5z M80.2,84.1v5.6h3.3v-5.6H80.2z"/>
<path class="st1" d="M83.8,96h-3.9v-6.1h3.9V96z"/>
<path class="st1" d="M79.7,89.6h4.4v6.6h-4.4V89.6z M80.2,90.2v5.6h3.3v-5.6H80.2z"/>
<path class="st0" d="M87.7,41.3h-3.9v-6.1h3.9V41.3z"/>
<path class="st1" d="M83.6,35H88v6.6h-4.4V35z M84.1,35.5v5.6h3.3v-5.6H84.1z"/>
<path class="st0" d="M87.7,47.4h-3.9v-6.1h3.9V47.4z"/>
<path class="st1" d="M83.6,41H88v6.6h-4.4V41z M84.1,41.5v5.6h3.3v-5.6H84.1z"/>
<path class="st0" d="M87.7,53.5h-3.9v-6.1h3.9V53.5z"/>
<path class="st1" d="M83.6,47.1H88v6.6h-4.4V47.1z M84.1,47.7v5.6h3.3v-5.6H84.1z"/>
<path class="st0" d="M87.7,59.5h-3.9v-6.1h3.9V59.5z M87.7,65.6h-3.9v-6.1h3.9V65.6z"/>
<path class="st1" d="M83.6,53.2H88v12.8h-4.4V53.2z M84.1,59.8v5.6h3.3v-5.6H84.1z M87.4,59.3h-3.3v-5.6h3.3V59.3z"/>
<path class="st0" d="M87.7,71.7h-3.9v-6.1h3.9V71.7z M87.7,77.8h-3.9v-6.1h3.9V77.8z"/>
<path class="st1" d="M83.6,65.3H88v12.7h-4.4V65.3z M84.1,72v5.6h3.3V72H84.1z M87.4,71.4h-3.3v-5.6h3.3V71.4z"/>
<path class="st0" d="M87.7,83.9h-3.9v-6.1h3.9V83.9z"/>
<path class="st1" d="M83.6,77.5H88v6.6h-4.4V77.5z M84.1,78v5.6h3.3V78H84.1z"/>
<path class="st1" d="M87.7,89.9h-3.9v-6.1h3.9V89.9z"/>
<path class="st1" d="M83.6,83.5H88v6.7h-4.4V83.5z M84.1,84.1v5.6h3.3v-5.6H84.1z"/>
<path class="st0" d="M87.7,96h-3.9v-6.1h3.9V96z M91.7,47.4h-3.8v-6.1h3.8V47.4z"/>
<path class="st1" d="M87.5,41h4.4v6.6h-4.4V41z M88.1,41.5v5.6h3.3v-5.6H88.1z M83.6,89.6H88v6.6h-4.4V89.6z M84.1,90.2v5.6h3.3
	v-5.6H84.1z"/>
<path class="st0" d="M91.7,53.5h-3.8v-6.1h3.8V53.5z"/>
<path class="st1" d="M87.5,47.1h4.4v6.6h-4.4V47.1z M88.1,47.7v5.6h3.3v-5.6H88.1z"/>
<path class="st0" d="M91.7,59.5h-3.8v-6.1h3.8V59.5z M91.7,65.6h-3.8v-6.1h3.8V65.6z"/>
<path class="st1" d="M87.5,53.2h4.4v12.8h-4.4V53.2z M88.1,59.8v5.6h3.3v-5.6H88.1z M91.4,59.3h-3.3v-5.6h3.3V59.3z"/>
<path class="st0" d="M91.7,71.7h-3.8v-6.1h3.8V71.7z M91.7,77.8h-3.8v-6.1h3.8V77.8z"/>
<path class="st1" d="M87.5,65.3h4.4v12.7h-4.4V65.3z M88.1,72v5.6h3.3V72H88.1z M91.4,71.4h-3.3v-5.6h3.3V71.4z"/>
<path class="st0" d="M91.7,83.9h-3.8v-6.1h3.8V83.9z"/>
<path class="st1" d="M87.5,77.5h4.4v6.6h-4.4V77.5z M88.1,78v5.6h3.3V78H88.1z"/>
<path class="st0" d="M91.7,89.9h-3.8v-6.1h3.8V89.9z M95.6,53.5h-3.8v-6.1h3.8V53.5z"/>
<path class="st1" d="M91.5,47.1h4.4v6.6h-4.4V47.1z M92,47.7v5.6h3.3v-5.6H92z M87.5,83.5h4.4v6.7h-4.4V83.5z M88.1,84.1v5.6h3.3
	v-5.6H88.1z"/>
<path class="st0" d="M95.6,59.5h-3.8v-6.1h3.8V59.5z M95.6,65.6h-3.8v-6.1h3.8V65.6z"/>
<path class="st1" d="M91.5,53.2h4.4v12.8h-4.4V53.2z M92,59.8v5.6h3.3v-5.6H92z M95.3,59.3H92v-5.6h3.3V59.3z"/>
<path class="st0" d="M95.6,71.7h-3.8v-6.1h3.8V71.7z M95.6,77.8h-3.8v-6.1h3.8V77.8z"/>
<path class="st1" d="M91.5,65.3h4.4v12.7h-4.4V65.3z M92,72v5.6h3.3V72H92z M95.3,71.4H92v-5.6h3.3V71.4z"/>
<path class="st0" d="M95.6,83.9h-3.8v-6.1h3.8V83.9z"/>
<path class="st1" d="M91.5,77.5h4.4v6.6h-4.4V77.5z M92,78v5.6h3.3V78H92z"/>
<path class="st0" d="M95.6,89.9h-3.8v-6.1h3.8V89.9z M99.6,59.5h-3.8v-6.1h3.8V59.5z M99.6,65.6h-3.8v-6.1h3.8V65.6z"/>
<path class="st1" d="M95.5,53.2h4.4v12.8h-4.4V53.2z M96,59.8v5.6h3.3v-5.6H96z M99.3,59.3H96v-5.6h3.3V59.3z M91.5,83.5h4.4v6.7
	h-4.4V83.5z M92,84.1v5.6h3.3v-5.6H92z"/>
<path class="st0" d="M99.6,71.7h-3.8v-6.1h3.8V71.7z M99.6,77.8h-3.8v-6.1h3.8V77.8z"/>
<path class="st1" d="M95.5,65.3h4.4v12.7h-4.4V65.3z M96,72v5.6h3.3V72H96z M99.3,71.4H96v-5.6h3.3V71.4z"/>
<path class="st0" d="M103.4,71.7l-3.8,0v-6.1l4.2,0L103.4,71.7z"/>
<path class="st1" d="M104.1,65.3l-0.5,6.7l-4.3,0v-6.6L104.1,65.3z M99.9,65.9v5.6l3.3,0l0.4-5.6L99.9,65.9z"/>
<path class="st0" d="M32.5,41.9v5.5h3.8v-6.1H33C32.8,41.5,32.7,41.7,32.5,41.9z"/>
<path class="st1" d="M32.9,41h3.8v6.6h-4.4v-5.8h0.3l-0.2-0.2C32.5,41.5,32.6,41.3,32.9,41L32.9,41z M32.8,42v5.2h3.3v-5.6h-3
	C33,41.7,32.9,41.8,32.8,42z"/>
<path class="st0" d="M32.5,47.4H29c-0.1,0.2-0.3,0.5-0.4,0.7v5.4h3.9L32.5,47.4z"/>
<path class="st1" d="M28.8,47.1h3.9l0,6.6h-4.4v-5.7l0-0.1c0.1-0.3,0.3-0.5,0.4-0.8L28.8,47.1z M29.2,47.7c-0.1,0.2-0.2,0.4-0.3,0.5
	v5h3.3l0-5.6H29.2z"/>
<path class="st0" d="M99.6,48c-0.1-0.2-0.2-0.4-0.3-0.6h-3.5v6.1h3.8V48z"/>
<path class="st1" d="M95.5,47.1h4l0.1,0.1c0,0.1,0.1,0.2,0.1,0.3c0.1,0.1,0.1,0.2,0.2,0.3l0,0.1v5.8h-4.4V47.1z M96,47.7v5.6h3.3
	v-5.1c0-0.1-0.1-0.2-0.1-0.3c0,0-0.1-0.1-0.1-0.2H96z"/>
<path class="st0" d="M95.6,41.7c-0.1-0.2-0.2-0.3-0.4-0.5h-3.5v6.1h3.8V41.7z"/>
<path class="st1" d="M91.5,41h3.9l0.1,0.1c0.1,0.2,0.2,0.3,0.4,0.5l0.1,0.1v6h-4.4V41z M92,41.5v5.6h3.3v-5.3
	c-0.1-0.1-0.1-0.2-0.2-0.3H92z"/>
<path class="st0" d="M79.2,29.1H76v6.1h3.8v-5.8C79.6,29.3,79.4,29.2,79.2,29.1"/>
<path class="st1" d="M75.7,28.9h3.5l0,0c0.1,0,0.1,0.1,0.2,0.1c0.2,0.1,0.3,0.1,0.5,0.2l0.2,0.1v6.3h-4.4V28.9z M76.2,29.4V35h3.3
	v-5.4c-0.1,0-0.2-0.1-0.3-0.1c-0.1,0-0.1,0-0.2-0.1H76.2z"/>
<path class="st0" d="M52.2,28c-1.1,0.3-2.1,0.7-3.2,1.2h3.2V28z"/>
<path class="st1" d="M52.4,27.6v1.8H49l-0.1-0.5c1.1-0.4,2.1-0.8,3.2-1.2L52.4,27.6z M50.4,28.9h1.5v-0.5
	C51.4,28.5,50.9,28.7,50.4,28.9z"/>
<path class="st0" d="M52.3,28v1.2h3.9V27C54.8,27.2,53.5,27.6,52.3,28z"/>
<path class="st1" d="M56.4,26.6v2.8H52V28h0.3l-0.1-0.3c1.3-0.4,2.6-0.7,3.9-1L56.4,26.6z M52.5,28.2v0.7h3.3v-1.6
	C54.7,27.5,53.6,27.8,52.5,28.2z"/>
<path class="st0" d="M56.2,26.9v2.2h3.8v-2.8C58.8,26.5,57.5,26.7,56.2,26.9"/>
<path class="st1" d="M60.3,26.1v3.4H56v-2.7l0.2,0c1.3-0.3,2.6-0.5,3.9-0.6L60.3,26.1z M56.5,27.2v1.7h3.3v-2.2
	C58.7,26.8,57.6,26.9,56.5,27.2z"/>
<path class="st0" d="M64,26.2c-1.3,0-2.6,0.1-3.9,0.2v2.8H64L64,26.2z"/>
<path class="st1" d="M64.3,25.9l0,3.6h-4.4v-3.3l0.2,0c1.3-0.1,2.6-0.2,3.9-0.2L64.3,25.9z M60.5,26.6v2.3h3.3l0-2.5
	C62.7,26.4,61.6,26.5,60.5,26.6z"/>
<path class="st0" d="M68,29.2v-2.8c-1.3-0.1-2.6-0.2-3.8-0.2v3H68z"/>
<path class="st1" d="M63.9,25.9l0.3,0c1.3,0,2.6,0.1,3.9,0.2l0.2,0v3.3h-4.4V25.9z M64.4,26.4v2.5h3.3v-2.3
	C66.6,26.5,65.5,26.4,64.4,26.4z"/>
<path class="st0" d="M68.1,26.3v2.8h3.8v-2.2C70.6,26.7,69.4,26.5,68.1,26.3z"/>
<path class="st1" d="M68.1,26.1c1.3,0.1,2.6,0.3,3.9,0.6l0.2,0v2.7h-4.4v-3.1h0.3L68.1,26.1z M68.3,26.6v2.3h3.3v-1.8
	C70.5,26.9,69.4,26.8,68.3,26.6z"/>
<path class="st0" d="M76,28v1.2h3.3C78.2,28.7,77.1,28.3,76,28z"/>
<path class="st1" d="M76.1,27.7c1.1,0.4,2.2,0.8,3.3,1.2l-0.1,0.5h-3.6V28H76L76.1,27.7z M76.2,28.3v0.6h1.6
	C77.3,28.7,76.8,28.5,76.2,28.3z"/>
<path class="st0" d="M83.8,31.4c-1.2-0.7-2.5-1.4-3.9-1.9v5.8h3.9V31.4z"/>
<path class="st1" d="M79.7,29l0.4,0.2c1.3,0.6,2.6,1.2,3.9,2l0.1,0.1v4.3h-4.4V29z M80.2,29.9V35h3.3v-3.4
	C82.4,30.9,81.3,30.4,80.2,29.9z"/>
<path class="st0" d="M83.8,31.4v3.8h3.9v-1.3C86.5,33,85.2,32.2,83.8,31.4"/>
<path class="st1" d="M83.6,31.2h0.3l0.1,0c1.3,0.8,2.6,1.6,3.9,2.5l0.1,0.1v1.7h-4.4V31.2z M84.1,31.9c1.1,0.7,2.2,1.4,3.3,2.2V35
	h-3.3V31.9z"/>
<path class="st0" d="M87.8,34v1.2h1.5C88.8,34.8,88.3,34.4,87.8,34"/>
<path class="st1" d="M87.5,33.8h0.4l0.1,0.1c0.5,0.4,1,0.8,1.5,1.2l0.6,0.5h-2.5V33.8z M88.1,34.6c0.2,0.1,0.3,0.3,0.5,0.4h-0.5
	V34.6z"/>
<path class="st0" d="M89.3,35.2h-1.5v6.1h3.8v-4C90.9,36.6,90.1,35.9,89.3,35.2z"/>
<path class="st1" d="M87.5,35h1.8v0.3l0.2-0.2c0.8,0.7,1.6,1.4,2.3,2.1l0.1,0.1v4.4h-4.4V35z M89.2,35.5h-1.2v5.6h3.3v-3.6
	C90.7,36.8,90,36.1,89.2,35.5z"/>
<path class="st0" d="M95.7,41.9v5.5h3.5C98.2,45.5,97.1,43.6,95.7,41.9z"/>
<path class="st1" d="M95.9,41.7c1.3,1.8,2.5,3.6,3.6,5.5l0.2,0.4h-4.2v-5.8h0.3L95.9,41.7z M96,42.7c1,1.4,2,2.9,2.8,4.4H96V42.7z"
	/>
<path class="st0" d="M99.6,48.1v5.4h2.2C101.3,51.6,100.5,49.8,99.6,48.1z"/>
<path class="st1" d="M99.9,48c0.9,1.7,1.6,3.5,2.2,5.4l0.1,0.4h-2.9v-5.6h0.3L99.9,48z M99.9,49.3c0.6,1.3,1.1,2.6,1.6,3.9h-1.6
	V49.3z"/>
<path class="st0" d="M101.8,53.4h-2.2v6.1h3.7C103,57.4,102.5,55.4,101.8,53.4z"/>
<path class="st1" d="M99.4,53.2h2.7l0.1,0.2c0.7,2,1.2,4,1.5,6.2l0,0.3h-4.3V53.2z M99.9,53.7v5.6h3.1c-0.3-1.9-0.8-3.8-1.4-5.6
	H99.9z"/>
<path class="st0" d="M102.1,77.7h-2.4v5.9C100.6,81.8,101.4,79.8,102.1,77.7"/>
<path class="st1" d="M99.4,77.5h2.7v0.2l0.3,0V78h-0.1c-0.6,2-1.4,3.9-2.4,5.8l-0.5-0.1V77.5z M101.7,78h-1.8v4.5
	C100.6,81.1,101.2,79.6,101.7,78z"/>
<path class="st0" d="M95.7,83.8v6.1h0c1.4-1.9,2.7-4,3.8-6.1H95.7z"/>
<path class="st1" d="M95.5,83.5h4.6l-0.2,0.4c-1.1,2.2-2.4,4.2-3.8,6.2l-0.1,0.1h-0.4V83.5z M96,84.1v5.1c1.2-1.6,2.2-3.3,3.1-5.1
	H96z"/>
<path class="st0" d="M91.8,94.4c1.4-1.3,2.7-2.8,3.8-4.3v-0.2h-3.8L91.8,94.4z"/>
<path class="st1" d="M91.5,89.6h4.4v0.6l-0.1,0.1c-1.2,1.5-2.5,3-3.9,4.3L91.5,95L91.5,89.6z M92,90.2l0,3.6
	c1.1-1.1,2.2-2.3,3.2-3.6H92z"/>
<path class="st0" d="M87.8,96H90c0.6-0.5,1.1-1,1.6-1.5v-4.6h-3.8L87.8,96z"/>
<path class="st1" d="M87.5,89.6h4.4v5l-0.1,0.1c-0.5,0.5-1.1,1-1.6,1.5l-0.1,0.1h-2.6L87.5,89.6z M88.1,90.2l0,5.6h1.8
	c0.5-0.4,1-0.9,1.5-1.4v-4.2H88.1z"/>
<path class="st0" d="M87.8,96v1.8c0.8-0.6,1.5-1.2,2.3-1.8H87.8z"/>
<path class="st1" d="M87.5,95.7h3.3l-0.5,0.5c-0.7,0.6-1.5,1.3-2.3,1.9l-0.4,0.3V95.7z M88.1,96.2v1c0.4-0.3,0.9-0.7,1.3-1H88.1z"/>
<path class="st0" d="M83.8,100.4c1.3-0.8,2.6-1.6,3.9-2.5V96h-3.9L83.8,100.4z"/>
<path class="st1" d="M83.6,95.7H88V98l-0.1,0.1c-1.2,0.9-2.5,1.7-3.9,2.5l-0.4,0.2L83.6,95.7z M84.1,96.2l0,3.7
	c1.1-0.7,2.3-1.4,3.3-2.2v-1.5H84.1z"/>
<path class="st0" d="M79.9,102.1h0.7c1.1-0.5,2.2-1.1,3.2-1.7v-4.5h-3.9V102.1z"/>
<path class="st1" d="M79.7,95.7h4.4v4.9l-0.1,0.1c-1,0.6-2.1,1.2-3.2,1.7l-0.1,0h-1V95.7z M80.2,96.2v5.6h0.3c1-0.5,2-1,3-1.5v-4
	H80.2z"/>
<path class="st0" d="M48.3,96h-3.9v4.5c1,0.6,2.1,1.2,3.2,1.7h0.7V96z"/>
<path class="st1" d="M44.1,95.7h4.4v6.6h-1l-0.1,0c-1.1-0.5-2.2-1.1-3.2-1.7l-0.1-0.1V95.7z M44.7,96.2v4c1,0.6,2,1.1,3,1.5H48v-5.6
	H44.7z"/>
<path class="st0" d="M40.4,97.8c1.2,0.9,2.5,1.7,3.8,2.5V96h-3.8V97.8z"/>
<path class="st1" d="M40.2,95.7h4.4v5.1l-0.4-0.2c-1.3-0.8-2.6-1.6-3.9-2.5L40.2,98V95.7z M40.7,96.2v1.5c1.1,0.8,2.2,1.5,3.3,2.2
	v-3.6H40.7z"/>
<path class="st0" d="M40.3,97.7V96h-2.2C38.8,96.6,39.6,97.2,40.3,97.7z"/>
<path class="st1" d="M37.4,95.7h3.2v2.6L40.2,98c-0.8-0.6-1.5-1.2-2.2-1.8L37.4,95.7z M38.8,96.2c0.4,0.3,0.8,0.7,1.2,1v-1H38.8z"/>
<path class="st0" d="M36.5,94.4c0.6,0.5,1.1,1.1,1.7,1.6h2.2v-6.1h-3.9V94.4z"/>
<path class="st1" d="M36.2,89.6h4.4v6.6h-2.5L38,96.2c-0.6-0.5-1.2-1-1.7-1.6l-0.1-0.1V89.6z M36.8,90.2v4.1c0.5,0.5,1,1,1.5,1.4
	h1.8v-5.6H36.8z"/>
<path class="st0" d="M32.5,90c1.2,1.5,2.5,3,3.8,4.3v-4.4L32.5,90L32.5,90z"/>
<path class="st1" d="M32.3,89.6h4.4V95l-0.5-0.4c-1.4-1.4-2.7-2.8-3.9-4.4l-0.1-0.1L32.3,89.6z M33,90.2c1,1.2,2,2.4,3.1,3.5v-3.5
	H33z"/>
<path class="st0" d="M32.5,83.8h-3.8c1.1,2.1,2.4,4.2,3.8,6.1h0L32.5,83.8z"/>
<path class="st1" d="M28.2,83.5h4.5l0,6.7h-0.4l-0.1-0.1c-1.5-1.9-2.7-4-3.8-6.2L28.2,83.5z M29.1,84.1c0.9,1.8,1.9,3.5,3.1,5.1
	l0-5.1H29.1z"/>
<path class="st0" d="M28.5,71.7h-3.7c0.3,2.1,0.8,4.1,1.4,6.1h2.3V71.7z"/>
<path class="st1" d="M24.5,71.4h4.3v6.7H26L26,77.9c-0.6-2-1.1-4-1.4-6.2L24.5,71.4z M25.1,72c0.3,1.9,0.7,3.8,1.3,5.6h1.8V72H25.1z
	"/>
<path class="st0" d="M28.5,83.5v-5.8h-2.3C26.8,79.7,27.6,81.7,28.5,83.5"/>
<path class="st1" d="M25.8,77.5h2.9v6h-0.3l-0.2,0.1c-0.9-1.9-1.7-3.8-2.3-5.8L25.8,77.5z M28.2,82.3V78h-1.7
	C27,79.5,27.6,80.9,28.2,82.3z"/>
<path class="st0" d="M28.5,59.5h-3.6c-0.1,0.6-0.2,1.2-0.3,1.8l-0.2,4.3l4.1,0V59.5z"/>
<path class="st1" d="M24.7,59.3h4.1v6.6l-4.6,0l0.2-4.6l0,0c0.1-0.6,0.2-1.2,0.3-1.8L24.7,59.3z M25.1,59.8c-0.1,0.5-0.2,1-0.2,1.6
	l-0.2,4l3.5,0v-5.6H25.1z"/>
<path class="st0" d="M28.5,59.5v-6.1h-2.1c-0.7,2-1.2,4-1.5,6.1H28.5z"/>
<path class="st1" d="M26.2,53.2h2.6v6.7h-4.2l0.1-0.3c0.3-2.1,0.8-4.1,1.5-6.2L26.2,53.2z M26.6,53.7c-0.6,1.8-1.1,3.7-1.4,5.6h3
	v-5.6H26.6z"/>
<path class="st0" d="M28.5,53.5v-5.2c-0.8,1.7-1.5,3.4-2.1,5.2H28.5z"/>
<path class="st1" d="M26.1,53.4c0.6-1.8,1.3-3.5,2.1-5.2l0.5,0.1v5.4H26L26.1,53.4z M26.8,53.2h1.5v-3.7
	C27.7,50.7,27.2,52,26.8,53.2z"/>
<path class="st0" d="M36.4,41.3v-3.8C35.1,38.7,34,40,33,41.3H36.4z"/>
<path class="st1" d="M36.6,36.9v4.7h-4.2l0.3-0.4c1.1-1.4,2.2-2.6,3.4-3.8L36.6,36.9z M33.5,41.1h2.6v-2.9
	C35.2,39.1,34.3,40.1,33.5,41.1z"/>
<path class="st0" d="M36.5,41.3h3.9v-6.1h-1.4c-0.9,0.7-1.7,1.4-2.4,2.2V41.3z"/>
<path class="st1" d="M38.8,35h1.8v6.6h-4.4v-4.3l0.1-0.1C37.1,36.5,37.9,35.7,38.8,35L38.8,35z M39,35.5c-0.8,0.6-1.5,1.3-2.3,2v3.5
	h3.3v-5.6H39z"/>
<path class="st0" d="M40.3,34.1c-0.5,0.4-0.9,0.7-1.4,1.1h1.4V34.1z"/>
<path class="st1" d="M40.6,33.6v1.9h-2.4l0.6-0.5c0.5-0.4,0.9-0.8,1.4-1.1L40.6,33.6z M39.7,35h0.4v-0.3
	C39.9,34.8,39.8,34.9,39.7,35z"/>
<path class="st0" d="M40.4,34v1.2h3.8v-3.7C43,32.3,41.7,33.1,40.4,34z"/>
<path class="st1" d="M44.6,31v4.5h-4.4v-1.6l0.1-0.1c1.2-0.9,2.5-1.8,3.9-2.5L44.6,31z M40.7,34.2V35H44v-3
	C42.9,32.6,41.8,33.4,40.7,34.2z"/>
<path class="st0" d="M48.3,29.5c-1.3,0.6-2.6,1.2-3.9,1.9v3.8h3.9V29.5z"/>
<path class="st1" d="M48.5,29.1v6.4h-4.4v-4.2l0.1-0.1c1.3-0.7,2.6-1.4,3.9-2L48.5,29.1z M44.7,31.6V35H48v-5.1
	C46.9,30.4,45.8,31,44.7,31.6z"/>
<path class="st0" d="M48.3,35.2h3.8v-6.1h-3c-0.3,0.1-0.5,0.2-0.8,0.3V35.2z"/>
<path class="st1" d="M49.1,28.9h3.4v6.6H48v-6.2l0.2-0.1C48.5,29.1,48.7,29,49.1,28.9L49.1,28.9z M49.2,29.4
	c-0.2,0.1-0.4,0.2-0.6,0.2V35h3.3v-5.6H49.2z"/>
<path class="st0" d="M103.5,60.5c0-0.3-0.1-0.6-0.1-0.9h-3.7v6.1l4.2,0L103.5,60.5z"/>
<path class="st1" d="M99.4,59.3h4.2l0,0.2c0.1,0.3,0.1,0.6,0.1,0.9l0,0l0.4,5.5l-4.8,0V59.3z M99.9,59.8v5.6l3.7,0l-0.3-4.9
	c0-0.2-0.1-0.5-0.1-0.7H99.9z"/>
<path class="st0" d="M99.6,71.7v6.1h2.4c0.6-2,1.1-4,1.4-6.1H99.6z"/>
<path class="st1" d="M99.4,71.4h4.4l0,0.3c-0.3,2.1-0.8,4.1-1.4,6.2l-0.1,0.2h-2.9V71.4z M99.9,72v5.6h1.9c0.6-1.8,1-3.7,1.3-5.6
	H99.9z"/>
<path class="st0" d="M99.6,77.7h-3.8v6.1h3.8c0,0,0-0.1,0-0.1V77.7z"/>
<path class="st1" d="M95.5,77.5h4.4v6.4l0,0.1c0,0,0,0,0,0c0,0,0,0,0,0l-0.1,0.1h-4.2V77.5z M96,78v5.6h3.3V78H96z"/>
<path class="st0" d="M28.7,83.9h3.8v-6.1h-3.9v6C28.6,83.8,28.7,83.8,28.7,83.9"/>
<path class="st1" d="M28.3,77.5h4.4v6.6h-4.3v-0.2c0,0,0,0,0,0l-0.1-0.1V77.5z M28.9,78v5.6h3.3V78H28.9z"/>
<path class="st0" d="M24.8,71.7h3.7v-6.1l-4.1,0l0.2,4.7C24.7,70.8,24.7,71.3,24.8,71.7z"/>
<path class="st1" d="M28.8,65.3V72h-4.2l0-0.2c0-0.3-0.1-0.6-0.1-0.9c0-0.1,0-0.3,0-0.4l0,0l-0.2-5L28.8,65.3z M24.7,65.9l0.2,4.5
	c0,0.1,0,0.3,0,0.4c0,0.2,0,0.4,0.1,0.7h3.2v-5.6L24.7,65.9z"/>
<path class="st2" d="M108,108.6V107L19.8,107v3.3l88.2-0.1V108.6z M104.8,55.8c-8.1,0-14.4,4.2-14.4,11.6c0,6.2,5.7,10.6,13.3,10.6
	c5.8,0,10.6-4.2,11.9-6.8c0-0.8-0.8-1.2-1.6-1.2c-1.3,2-5.1,3.6-6.6,3.5c-9.2-0.3-10.7-4-10.8-7.9c-0.2-4.2,4.3-7.8,8.2-7.5
	c2.2,0.2,3,3.8,5,5.2c0.6,0.3,2,0.3,3,0.1c0.7-0.1,2.6-0.5,2.6-2.2c0-1.4-1.7-2.9-3.3-3.9C110.5,56.6,106.8,55.8,104.8,55.8z"/>
<path class="st2" d="M50.5,71.7c0,3.4-0.9,5.2-3.6,5.4l0.1,0.6c4.6-0.1,9.3,0,13.8-0.1l0.1-0.3c-2.1,0-3.7-2.2-3.7-4.9v-9.2
	c0-2.3,2.7-3.7,4.6-3.5c2.9,0.3,4.5,2.1,4.5,3.8v9c0,2.8-0.8,4.5-3,4.6v0.5h12.6v-0.4c-1.9-0.2-3.2-1.9-3.2-4.5v-9.5
	c0-2,1.8-3.4,4.9-3.5c2.8-0.1,4.4,2,4.4,3.9v8.6c0,2.9-0.9,4.7-3.1,5v0.4c4.6,0.1,8.4,0.1,13,0v-0.3c-2.4,0-3.2-1.6-3.2-4.9v-9.5
	c0-3.1-1.7-6.9-6.5-6.9c-3.2,0-5.6,1.6-7,2c-0.9,0.4-1.6,0.8-1.8,0.8c-0.4,0-0.9-0.3-1.5-0.9c-1.2-1.2-3.2-1.9-5.4-1.9
	c-2.8,0-5.6,1.6-6.9,2c-0.2,0-1.1,0.5-1.3,0.5c-0.2,0-1.1,0-1.1-0.1c0-2.6,0.2-1.3,0.1-3.2h-1.8c-0.5,0-1.5,1-2.6,1.4
	c-1.3,0.6-4,0.5-5.1,0.8v1.9l2.9,0.5v3.6L50.5,71.7z"/>
<path class="st2" d="M38.1,77.6c4.8-0.2,9.5-1.3,9.5-5.9c0-3.4-3.7-5.6-7.7-7.3c-2.5-1-6.2-2.6-6.2-3.8c0-1.4,2.8-4.2,5.5-2l4.7,3.9
	l2.1-0.4l-1.2-5.8c-1.1,0-1.9,0.1-5.9-0.6c-5-0.7-10.8,1.8-10.8,6.4c0,3.1,4.5,5.2,8,6.7c1.9,0.8,5.3,2,5.3,3.9c0,1.8-3.2,2.3-5,2.3
	c-3.1,0-6.5-4.1-6.5-4.1h-2L29,77c0.4-0.3,1.8-0.3,2-0.2C32,77.2,35.6,77.8,38.1,77.6L38.1,77.6z M26.4,58.9v-2.9l-6,0.1
	c-0.8,0-0.7-0.2-0.7-1.2l0.1-3.9l-3-0.1c-0.9,2.1-2.1,3.5-2.7,3.7l-5.6,2.5V59l2.1,0.1c0.9,0,1.3-0.1,1.3,1v11.6
	c0,3.5,1.9,6.1,6.9,6.2c3.7,0.1,6-1.5,7.6-3.1l-0.4-1.5c-0.7,0.4-1.2,0.8-2.1,0.8c-4.2,0-4.1-3.3-4.1-6.2v-7.9
	c0-1.2,0.1-1.2,0.9-1.2H26.4z"/>
</svg>
