<?xml version="1.0" encoding="utf-8"?>
<!-- Generator: Adobe Illustrator 21.0.0, SVG Export Plug-In . SVG Version: 6.00 Build 0)  -->
<svg version="1.1" id="图层_1" xmlns="http://www.w3.org/2000/svg" xmlns:xlink="http://www.w3.org/1999/xlink" x="0px" y="0px"
	 viewBox="0 0 128 128" style="enable-background:new 0 0 128 128;" xml:space="preserve">
<style type="text/css">
	.st0{fill:#FFFFFF;}
	.st1{fill:#F7931A;}
	.st2{fill:url(#SVGID_1_);}
</style>
<circle class="st0" cx="64" cy="64" r="64"/>
<path class="st1" d="M64,118.2c29.9,0,54.2-24.2,54.2-54.2c0-29.9-24.2-54.2-54.2-54.2C34.1,9.8,9.8,34.1,9.8,64
	C9.8,93.9,34.1,118.2,64,118.2z"/>
<linearGradient id="SVGID_1_" gradientUnits="userSpaceOnUse" x1="0" y1="65" x2="128" y2="65" gradientTransform="matrix(1 0 0 -1 0 129)">
	<stop  offset="0" style="stop-color:#F9AA4A"/>
	<stop  offset="1" style="stop-color:#F7941B"/>
</linearGradient>
<path class="st2" d="M64,121.8c31.9,0,57.8-25.9,57.8-57.8S95.9,6.2,64,6.2S6.2,32.1,6.2,64S32.1,121.8,64,121.8z M128,64
	c0,35.3-28.7,64-64,64S0,99.3,0,64S28.7,0,64,0S128,28.7,128,64z"/>
<path class="st0" d="M88,56.7c1.1-7.2-4.4-11.2-11.9-13.8l2.5-9.8l-6-1.5l-2.5,9.6c-1.6-0.4-3.2-0.8-4.8-1.2l2.5-9.6l-6-1.5
	l-2.5,9.8c-1.3-0.3-2.6-0.6-3.8-0.9l0,0l-8.2-2.1l-1.6,6.4c0,0,4.4,1,4.3,1.1c2.4,0.6,2.8,2.2,2.8,3.5l-2.9,11.2
	c0.2,0,0.4,0.1,0.6,0.2l-0.6-0.2l-4,15.7c-0.3,0.7-1.1,1.8-2.8,1.4c0.1,0.1-4.3-1.1-4.3-1.1l-3,6.8l7.8,2c1.4,0.4,2.9,0.8,4.3,1.1
	l-2.5,9.9l6,1.5l2.5-9.8c1.6,0.5,3.2,0.9,4.8,1.3L56,96.3l6,1.5l2.5-9.9c10.2,2,17.9,1.3,21.2-7.9c2.7-7.4,0-11.7-5.4-14.6
	C84.2,64.6,87.1,62,88,56.7z M74.2,75.8c-1.9,7.4-14.4,3.3-18.4,2.3l3.4-13.1C63.2,66,76.1,68.1,74.2,75.8z M76.1,56.5
	c-1.7,6.7-12.1,3.2-15.5,2.4L63.7,47C67.1,47.9,78,49.5,76.1,56.5z"/>
<path class="st0" d="M107.7,60.5l-5.9-1.6l-2.2,8.3l-7.4-2l-1.6,5.9l7.4,2L96,80.3l5.9,1.6l1.9-7.1l8,2.2l1.6-5.9l-8-2.2L107.7,60.5
	z"/>
</svg>
