<?xml version="1.0" encoding="utf-8"?>
<!-- Generator: Adobe Illustrator 21.0.0, SVG Export Plug-In . SVG Version: 6.00 Build 0)  -->
<svg version="1.1" id="图层_1" xmlns="http://www.w3.org/2000/svg" xmlns:xlink="http://www.w3.org/1999/xlink" x="0px" y="0px"
	 viewBox="0 0 128 128" style="enable-background:new 0 0 128 128;" xml:space="preserve">
<style type="text/css">
	.st0{fill:url(#SVGID_1_);}
	.st1{fill:#00BFB1;}
	.st2{fill:#5F1BFF;}
</style>
<linearGradient id="SVGID_1_" gradientUnits="userSpaceOnUse" x1="3.5556" y1="65" x2="124.444" y2="65" gradientTransform="matrix(1 0 0 -1 0 129)">
	<stop  offset="0" style="stop-color:#020100"/>
	<stop  offset="1" style="stop-color:#3E3E3E"/>
</linearGradient>
<path class="st0" d="M128,64c0,35.3-28.7,64-64,64S0,99.3,0,64S28.7,0,64,0S128,28.7,128,64z"/>
<path class="st1" d="M64,0C28.7,0,0,28.7,0,64s28.7,64,64,64s64-28.7,64-64S99.3,0,64,0z M64,124.4C30.6,124.4,3.6,97.4,3.6,64
	S30.6,3.6,64,3.6s60.4,27.1,60.4,60.4S97.4,124.4,64,124.4z"/>
<path class="st2" d="M46.4,40.2l6.4-6.3L54,35l-6.4,6.3L46.4,40.2z"/>
<path class="st2" d="M46.4,50.9l6.4-6.3l1.2,1.2l-6.4,6.3L46.4,50.9z M46.4,61.6l6.7-6.7l1.2,1.2l-6.7,6.7L46.4,61.6z M46.4,72.3
	l7.4-7.3l1.2,1.2l-7.4,7.3L46.4,72.3z M46.4,82.3l7.4-7.3l1.2,1.2l-7.4,7.3L46.4,82.3z M67.5,92.9l7.4-7.3l1.2,1.2l-7.4,7.3
	L67.5,92.9z M78.2,92.9l7.4-7.3l1.2,1.2l-7.4,7.3L78.2,92.9z M46.4,93l7.4-7.3l1.2,1.2l-7.4,7.3L46.4,93z M57.1,93l7.4-7.3l1.2,1.2
	l-7.4,7.3L57.1,93z"/>
<path class="st1" d="M41.8,29.3h6.1v6.1h-6.1V29.3z"/>
<path class="st1" d="M41.8,39.8h6.1v6.1h-6.1V39.8z"/>
<path class="st1" d="M41.8,50.3h6.1v6.1h-6.1V50.3z"/>
<path class="st1" d="M41.8,60.7h6.1v6.1h-6.1V60.7z"/>
<path class="st1" d="M41.8,71.4h6.1v6.1h-6.1V71.4z"/>
<path class="st1" d="M41.8,81.9h6.1V88h-6.1V81.9z"/>
<path class="st1" d="M41.8,92.3h6.1v6.1h-6.1V92.3z"/>
<path class="st1" d="M63.2,81.9h6.1V88h-6.1V81.9z"/>
<path class="st1" d="M63.2,92.3h6.1v6.1h-6.1V92.3z"/>
<path class="st1" d="M52.5,29.3h6.1v6.1h-6.1V29.3z"/>
<path class="st1" d="M52.5,39.8h6.1v6.1h-6.1V39.8z"/>
<path class="st1" d="M52.5,50.3h6.1v6.1h-6.1V50.3z"/>
<path class="st1" d="M52.5,60.7h6.1v6.1h-6.1V60.7z"/>
<path class="st1" d="M52.5,71.4h6.1v6.1h-6.1V71.4z"/>
<path class="st1" d="M52.5,81.9h6.1V88h-6.1V81.9z"/>
<path class="st1" d="M52.5,92.3h6.1v6.1h-6.1V92.3z"/>
<path class="st1" d="M73.9,81.9H80V88h-6.1V81.9z"/>
<path class="st1" d="M73.9,92.3H80v6.1h-6.1V92.3z"/>
<path class="st1" d="M84.6,81.9h6.1V88h-6.1V81.9z"/>
<path class="st1" d="M84.6,92.3h6.1v6.1h-6.1V92.3z"/>
</svg>
