<?xml version="1.0" encoding="utf-8"?>
<!-- Generator: Adobe Illustrator 21.0.0, SVG Export Plug-In . SVG Version: 6.00 Build 0)  -->
<svg version="1.1" id="图层_1" xmlns="http://www.w3.org/2000/svg" xmlns:xlink="http://www.w3.org/1999/xlink" x="0px" y="0px"
	 viewBox="0 0 128 128" style="enable-background:new 0 0 128 128;" xml:space="preserve">
<style type="text/css">
	.st0{fill:#FFFFFF;}
	.st1{fill:#FF9900;}
</style>
<circle class="st0" cx="64" cy="64" r="64"/>
<path class="st1" d="M93.1,89.9c-33,15.7-53.5,2.6-66.6-5.4c-0.8-0.5-2.2,0.1-1,1.5c4.4,5.3,18.7,18.1,37.4,18.1
	c18.7,0,29.8-10.2,31.2-12C95.5,90.2,94.5,89.3,93.1,89.9L93.1,89.9z M102.4,84.7c-0.9-1.2-5.4-1.4-8.2-1c-2.8,0.3-7.1,2.1-6.7,3.1
	c0.2,0.4,0.6,0.2,2.5,0c2-0.2,7.4-0.9,8.6,0.6c1.1,1.5-1.7,8.7-2.3,9.8c-0.5,1.2,0.2,1.5,1.2,0.7c0.9-0.8,2.7-2.8,3.8-5.6
	C102.3,89.6,103,85.6,102.4,84.7L102.4,84.7z"/>
<path d="M89.7,73.8c-1.9-2.7-4-4.9-4-9.8V47.5c0-7,0.5-13.4-4.7-18.2C77,25.4,70.3,24,65.1,24c-10.1,0-21.3,3.8-23.7,16.2
	c-0.2,1.3,0.7,2,1.6,2.2l10.3,1.1c1,0,1.7-1,1.8-1.9c0.9-4.3,4.5-6.4,8.5-6.4c2.2,0,4.6,0.8,5.9,2.8c1.5,2.2,1.3,5.2,1.3,7.7V47
	c-6.1,0.7-14.2,1.1-19.9,3.7c-6.6,2.9-11.3,8.7-11.3,17.3c0,11,6.9,16.5,15.8,16.5c7.5,0,11.6-1.8,17.4-7.7c1.9,2.8,2.6,4.1,6.1,7.1
	c0.8,0.4,1.8,0.4,2.5-0.3l0,0h0c0,0,0,0,0,0l0,0c2.1-1.9,6-5.2,8.1-7C90.6,75.9,90.4,74.7,89.7,73.8z M68.9,69
	c-1.7,3-4.3,4.8-7.3,4.8c-4.1,0-6.4-3.1-6.4-7.7c0-9,8.1-10.7,15.7-10.7v2.3C70.9,61.9,71,65.4,68.9,69z"/>
</svg>
