<?xml version="1.0" encoding="utf-8"?>
<!-- Generator: Adobe Illustrator 21.0.0, SVG Export Plug-In . SVG Version: 6.00 Build 0)  -->
<svg version="1.1" id="图层_1" xmlns="http://www.w3.org/2000/svg" xmlns:xlink="http://www.w3.org/1999/xlink" x="0px" y="0px"
	 viewBox="0 0 128 128" style="enable-background:new 0 0 128 128;" xml:space="preserve">
<style type="text/css">
	.st0{fill:#FFFFFF;}
	.st1{fill:#223CDD;}
</style>
<circle class="st0" cx="64" cy="64" r="64"/>
<path class="st1" d="M38.1,66.2c8.7-1.9,7.5-12.3,7.3-14.5c-0.4-3.5-4.5-9.6-10.1-9.1c-7,0.6-8.1,10.8-8.1,10.8
	C26.2,58,29.4,68,38.1,66.2z M54.3,48.7c4.8,0,8.7-5.5,8.7-12.4c0-6.8-3.9-12.4-8.7-12.4c-4.8,0-8.7,5.5-8.7,12.4
	C45.6,43.2,49.5,48.7,54.3,48.7z M75,49.5c6.4,0.8,10.5-6,11.4-11.2c0.8-5.2-3.3-11.2-7.8-12.3c-4.6-1-10.2,6.2-10.8,11
	C67.1,42.9,68.5,48.7,75,49.5z M100.4,58.3c0-2.5-2.1-10-9.7-10c-7.7,0-8.7,7.1-8.7,12.1c0,4.8,0.4,11.4,9.9,11.2
	C101.4,71.3,100.4,60.8,100.4,58.3z M90.7,80.1c0,0-9.9-7.7-15.7-16c-7.9-12.2-19-7.3-22.8-1c-3.7,6.2-9.5,10.2-10.3,11.2
	c-0.8,1-12,7.1-9.5,18.1c2.5,11,11.2,10.8,11.2,10.8s6.4,0.6,13.9-1c7.5-1.7,13.9,0.4,13.9,0.4s17.4,5.8,22.1-5.4
	C98.1,85.9,90.7,80.1,90.7,80.1z"/>
<path class="st0" d="M55.8,69.4v7.4h-6c0,0-6,0.5-8.1,7.3c-0.7,4.6,0.6,7.2,0.9,7.8c0.2,0.6,2.2,3.9,7.1,4.9h11.3V69.4L55.8,69.4z
	 M55.7,92.3h-4.6c0,0-3.2-0.2-4.1-3.8c-0.5-1.6,0.1-3.5,0.3-4.2c0.2-0.7,1.3-2.4,3.5-3.1h4.9L55.7,92.3z M63.7,77.4v14.4
	c0,0,0.2,3.6,5.3,4.9h13V77.4h-5.6v14.5H71c0,0-1.7-0.2-2-1.6V77.3L63.7,77.4z"/>
</svg>
