<?xml version="1.0" encoding="utf-8"?>
<!-- Generator: Adobe Illustrator 21.0.0, SVG Export Plug-In . SVG Version: 6.00 Build 0)  -->
<svg version="1.1" id="图层_1" xmlns="http://www.w3.org/2000/svg" xmlns:xlink="http://www.w3.org/1999/xlink" x="0px" y="0px"
	 viewBox="0 0 128 128" style="enable-background:new 0 0 128 128;" xml:space="preserve">
<style type="text/css">
	.st0{fill:#FFFFFF;}
	.st1{fill:#2E3192;}
</style>
<circle class="st0" cx="64" cy="64" r="64"/>
<path class="st1" d="M27.4,48c0.8-0.6,0.9-1.5,0.9-2.3c0-0.9-0.2-1.7-0.8-2.5c-0.4-0.8-1.1-1.3-2.1-1.7C24.5,41.2,23,41,20.9,41H12
	v0.4c0.8,0,1.3,0.2,1.7,0.4c0.4,0.2,0.6,0.4,0.6,0.6c0.2,0.2,0.4,0.9,0.4,1.9v12.1c0,1.1-0.2,1.7-0.4,2.1c0,0.2-0.2,0.4-0.6,0.6
	c-0.4,0.2-0.9,0.2-1.7,0.2v0.6h9.5c2.7,0,4.7-0.6,6.1-1.7c1.1-0.9,1.7-2.1,1.7-3.6c0-1.3-0.6-2.3-1.5-3.2c-0.8-0.6-2.1-1-3.8-1.5
	C25.7,49.3,26.8,48.8,27.4,48z M18.8,42c1.3,0,2.5,0.2,3,0.6c0.6,0.2,1.1,0.6,1.3,1.1c0.4,0.6,0.6,1.1,0.6,2.1
	c0,0.8-0.2,1.5-0.6,1.9c-0.3,0.5-0.8,1-1.3,1.3c-0.8,0.4-1.7,0.4-3,0.4V42z M22,50.9c0.8,0.4,1.3,0.8,1.7,1.5
	c0.4,0.8,0.6,1.5,0.6,2.3c0,0.8-0.2,1.5-0.6,2.1c-0.4,0.6-0.8,1.1-1.3,1.5c-0.8,0.2-1.3,0.4-2.1,0.4c-0.4,0-0.8,0-1.1-0.4
	c-0.2-0.2-0.4-0.6-0.4-1.1v-6.6C20.3,50.5,21.3,50.7,22,50.9z M36.5,49.6c0.9,0,1.4,0,1.6,0.1c0.5,0.1,0.9,0.4,1.2,0.8
	c0.3,0.3,0.5,0.9,0.7,1.6h0.3v-3.2h-9.1v0.2h0.4c0.3,0,0.5,0.1,0.8,0.3c0.1,0,0.2,0.2,0.3,0.3v8.1c0,0.5,0,0.9-0.1,1
	c0,0.2-0.1,0.3-0.3,0.4c-0.1,0.1-0.4,0.1-0.7,0.1h-0.4v0.3h9.3l0.5-3.5h-0.3c-0.2,1-0.7,1.8-1.3,2.2c-0.5,0.4-1.4,0.7-2.4,0.7h-0.7
	c-0.3,0-0.5,0-0.7-0.1c-0.1-0.1-0.2-0.2-0.2-0.3c-0.1-0.1-0.1-0.4-0.1-1.1v-3.1c0.5,0,0.9,0.1,1.2,0.2c0.2,0.1,0.4,0.4,0.7,0.8
	c0.2,0.4,0.3,1,0.4,1.5h0.3v-5.6h-0.3c-0.1,0.8-0.3,1.4-0.7,1.9c-0.2,0.4-0.8,0.7-1.4,0.7h-0.2v-4.4H36.5z M46.9,54.9l3.5,4.9h3.4
	v-0.3c-0.3,0-0.5-0.1-0.8-0.3c-0.1-0.1-0.4-0.3-0.8-0.8l-2.5-3.7c0.7-0.1,1.1-0.4,1.5-0.8c0.5-0.4,0.9-1.1,0.9-2
	c0-0.7-0.2-1.2-0.7-1.6c-0.3-0.5-0.9-0.9-1.4-1.1c-0.9-0.2-1.9-0.2-2.8-0.2h-5v0.2c0.4,0,0.8,0.1,1,0.2c0.2,0.1,0.3,0.2,0.3,0.3
	c0.1,0.1,0.1,0.5,0.1,1.1v7.1c0,0.5,0,0.9-0.1,1.1c0,0.1-0.1,0.2-0.3,0.3c-0.2,0.1-0.5,0.1-1,0.1v0.3h5.5v-0.3c-0.4,0-0.8,0-1-0.1
	c-0.2-0.1-0.3-0.2-0.3-0.3c-0.1-0.2-0.2-0.5-0.2-1.1v-3.1H46.9z M47,49.5c0.9,0,1.5,0.2,1.9,0.7c0.4,0.3,0.7,1,0.7,1.8
	c0,0.7-0.1,1.1-0.3,1.4s-0.5,0.5-0.9,0.8c-0.5,0.1-1.1,0.2-1.6,0.2h-0.5v-4.8H47z M63.7,50.6c0.8-0.7,1.2-1.1,1.4-1.2
	c0.2-0.1,0.5-0.1,0.9-0.2v-0.2h-4.2v0.2c0.4,0.1,0.8,0.1,0.9,0.2c0.2,0.1,0.3,0.2,0.3,0.4c0,0.3-0.3,0.7-0.9,1.1l-3.9,3.3v-3.4v-1.1
	l0.3-0.3c0.2-0.1,0.5-0.2,0.9-0.2v-0.2H54v0.2h0.3c0.3,0,0.5,0.1,0.8,0.2c0.1,0.1,0.3,0.2,0.3,0.3c0.1,0.2,0.1,0.5,0.1,1.1v7.1
	c0,0.5,0,0.9-0.1,1c-0.1,0.2-0.2,0.3-0.3,0.4c-0.2,0.1-0.4,0.1-0.8,0.1H54v0.3h5.5v-0.3c-0.4,0-0.8,0-0.9-0.1
	c-0.2-0.1-0.3-0.2-0.4-0.3V55l0.3-0.3l2.5,3.1c0.4,0.7,0.8,1.1,0.8,1.3c0,0.1-0.1,0.2-0.2,0.3c-0.1,0-0.3,0.1-0.7,0.1v0.3h5.6v-0.3
	c-0.3,0-0.5-0.1-0.9-0.2c-0.4-0.2-0.9-0.7-1.4-1.4l-3.7-4.7L63.7,50.6z M73.9,48.7c-0.1,0.3-0.2,0.4-0.3,0.5c0,0.1-0.1,0.1-0.3,0.1
	c-0.1,0-0.3,0-0.7-0.2c-0.4-0.1-0.7-0.2-1-0.3c-0.3-0.1-0.7-0.1-1-0.1c-1,0-1.8,0.3-2.4,0.9c-0.7,0.7-0.9,1.3-0.9,2.2
	c0,0.5,0.1,1,0.3,1.4c0.2,0.4,0.5,0.8,1,1.1c0.4,0.3,1.1,0.8,2.1,1.2c0.8,0.4,1.2,0.7,1.5,0.9c0.2,0.2,0.4,0.4,0.5,0.7
	c0.1,0.3,0.2,0.5,0.2,0.8c0,0.4-0.2,0.8-0.5,1.1c-0.3,0.3-0.8,0.5-1.4,0.5c-0.8,0-1.4-0.3-2.2-0.9c-0.7-0.7-1.1-1.5-1.3-2.6h-0.2V60
	h0.2c0.1-0.2,0.2-0.4,0.3-0.5c0.2-0.1,0.3-0.1,0.5-0.1c0.1,0,0.3,0,0.5,0.1c0.4,0.2,0.9,0.3,1.2,0.4c0.2,0.1,0.5,0.1,1,0.1
	c1,0,2-0.3,2.6-1c0.7-0.7,1.1-1.4,1.1-2.3c0-0.8-0.2-1.4-0.7-2c-0.4-0.4-1.3-1.1-2.6-1.8c-0.9-0.4-1.4-0.8-1.6-0.9
	c-0.3-0.2-0.6-0.4-0.8-0.8c-0.1-0.2-0.2-0.3-0.2-0.7c0-0.3,0.2-0.7,0.4-1c0.3-0.2,0.8-0.4,1.3-0.4c0.8,0,1.4,0.3,2,0.9
	c0.7,0.5,1,1.2,1.2,2.2h0.3l-0.1-3.6H73.9z M83.7,54.5v4.4c-0.1,0.2-0.2,0.3-0.3,0.4c-0.2,0.1-0.4,0.1-0.8,0.1h-0.3v0.3h5.6v-0.3
	h-0.3c-0.3,0-0.5,0-0.8-0.1c-0.1-0.1-0.2-0.3-0.3-0.4c-0.1-0.1-0.1-0.4-0.1-1v-7.1c0-0.5,0-0.9,0.1-1c0.1-0.2,0.2-0.3,0.3-0.4
	c0.2-0.1,0.4-0.2,0.8-0.2h0.3v-0.2h-5.6v0.2h0.3c0.3,0,0.5,0.1,0.7,0.2c0.2,0.1,0.3,0.2,0.4,0.3v4.2h-3.8v-3.1c0-0.5,0.1-0.9,0.1-1
	c0.1-0.2,0.2-0.3,0.3-0.4c0.2-0.1,0.4-0.2,0.8-0.2h0.3v-0.2h-5.6v0.2h0.3c0.3,0,0.5,0.1,0.8,0.2c0.1,0.1,0.2,0.2,0.3,0.3
	c0.1,0.2,0.1,0.5,0.1,1.1v7.1c0,0.5,0,0.9-0.1,1c-0.1,0.2-0.2,0.3-0.3,0.4c-0.2,0.1-0.4,0.1-0.8,0.1h-0.3v0.3h5.6v-0.3h-0.3
	c-0.3,0-0.5,0-0.7-0.1c-0.2-0.1-0.4-0.2-0.4-0.4c0-0.1-0.1-0.4-0.1-1v-3.4L83.7,54.5z M93.8,59.5c-0.3,0-0.5,0-0.8-0.1
	c-0.1-0.1-0.2-0.3-0.3-0.4c0-0.1-0.1-0.4-0.1-1v-7.1c0-0.5,0.1-0.9,0.1-1c0.1-0.2,0.2-0.3,0.3-0.4c0.2-0.1,0.4-0.2,0.8-0.2h0.3v-0.2
	h-5.6v0.2h0.3c0.3,0,0.5,0.1,0.8,0.2l0.3,0.3c0,0.2,0.1,0.5,0.1,1.1v7.1c0,0.5-0.1,0.9-0.1,1c-0.1,0.2-0.2,0.3-0.3,0.4
	c-0.2,0.1-0.4,0.1-0.8,0.1h-0.3v0.3h5.6v-0.3H93.8z M99.6,54.9l3.5,4.9h3.4v-0.3c-0.3,0-0.5-0.1-0.8-0.3c-0.2-0.2-0.5-0.5-0.7-0.8
	l-2.6-3.7c0.6-0.1,1.1-0.4,1.5-0.8c0.5-0.4,0.9-1.1,0.9-2c0-0.6-0.2-1.2-0.5-1.6c-0.4-0.5-0.9-0.9-1.5-1.1c-0.5-0.1-1.5-0.2-2.8-0.2
	h-5v0.2c0.4,0,0.9,0.1,1,0.2c0.2,0.1,0.3,0.2,0.4,0.3c0,0.1,0.1,0.5,0.1,1.1v7.1c0,0.5-0.1,0.9-0.1,1.1c-0.1,0.1-0.3,0.2-0.4,0.3
	c-0.1,0.1-0.4,0.1-1,0.1v0.3h5.5v-0.3c-0.4,0-0.8,0-1-0.1C99.2,59.2,99,59.1,99,59c-0.1-0.2-0.1-0.5-0.1-1.1v-3.1H99.6z M99.7,49.5
	c0.9,0,1.5,0.2,2,0.7c0.3,0.3,0.5,1,0.5,1.8c0,0.7-0.1,1.1-0.3,1.4c-0.2,0.3-0.5,0.5-0.9,0.8c-0.3,0.1-0.9,0.2-1.6,0.2h-0.4v-4.8
	H99.7z M111.9,49.6c0.8,0,1.3,0,1.6,0.1c0.5,0.1,0.9,0.4,1.2,0.8c0.2,0.3,0.4,0.9,0.7,1.6h0.2v-3.2h-9v0.2h0.3
	c0.3,0,0.7,0.1,0.9,0.3c0.1,0,0.2,0.2,0.2,0.3c0.1,0.1,0.1,0.4,0.1,1v7.1c0,0.5-0.1,0.9-0.1,1c-0.1,0.2-0.2,0.3-0.3,0.4
	c-0.2,0.1-0.4,0.1-0.8,0.1h-0.3v0.3h9.3l0.5-3.5h-0.3c-0.3,1-0.8,1.8-1.3,2.2c-0.7,0.4-1.4,0.7-2.4,0.7h-0.7c-0.3,0-0.5,0-0.7-0.1
	l-0.3-0.3c0-0.1-0.1-0.4-0.1-1.1v-3.1c0.5,0,1,0.1,1.2,0.2c0.3,0.1,0.5,0.4,0.8,0.8c0.2,0.4,0.3,1,0.3,1.5h0.3v-5.6H113
	c0,0.8-0.2,1.4-0.5,1.9c-0.3,0.4-0.8,0.7-1.5,0.7h-0.2v-4.4H111.9z"/>
<path class="st1" d="M23.8,76.7v5.9c0,0.9,0,1.5-0.2,1.7c0,0.4-0.4,0.6-0.6,0.8c-0.2,0.2-0.8,0.2-1.3,0.2h-0.6v0.6H31v-0.6h-0.8
	c-0.4,0-0.9,0-1.1-0.2c-0.4-0.2-0.6-0.4-0.8-0.8v-14v-1.7c0.2-0.4,0.4-0.6,0.6-0.8c0.4-0.2,0.8-0.4,1.3-0.4H31V67h-9.9v0.4h0.6
	c0.6,0,0.9,0.2,1.3,0.4c0.4,0.2,0.6,0.4,0.6,0.6c0.2,0.4,0.2,0.9,0.2,1.9v5.3h-6.6v-5.3c0-0.9,0-1.5,0.2-1.7
	c0.1-0.3,0.3-0.5,0.6-0.8c0.4-0.2,0.8-0.4,1.3-0.4h0.6V67H9.9v0.4h0.8c0.4,0,0.9,0.2,1.1,0.4c0.4,0.2,0.6,0.4,0.8,0.6v15.9
	c-0.2,0.4-0.4,0.6-0.6,0.8c-0.4,0.2-0.8,0.2-1.3,0.2H9.9v0.6h9.9v-0.6h-0.6c-0.6,0-0.9,0-1.3-0.2c-0.2-0.2-0.6-0.4-0.6-0.8
	c-0.2-0.2-0.2-0.8-0.2-1.7v-5.9H23.8z M40.1,84c0.1,0.3,0.2,0.5,0.2,0.5v0.3c0,0.2,0,0.3-0.1,0.4c-0.2,0.1-0.4,0.1-0.9,0.1h-0.2v0.3
	h5.1v-0.3c-0.3,0-0.5-0.1-0.8-0.3c-0.2-0.1-0.5-0.7-0.9-1.5l-3.9-8.9h-0.1l-3.8,8.6c-0.3,0.8-0.7,1.3-1,1.6
	c-0.2,0.2-0.5,0.4-0.9,0.4v0.3h3.5v-0.3c-0.5,0-0.9-0.1-1-0.2c-0.2-0.1-0.4-0.3-0.4-0.7c0-0.2,0.1-0.5,0.2-0.9l0.5-1h3.7L40.1,84z
	 M36,82.1l1.6-3.6l1.6,3.6H36z M45.2,74.9v3h0.2c0.1-0.9,0.4-1.4,0.9-1.9c0.3-0.3,0.9-0.4,1.6-0.4h0.8v8.3c0,0.5,0,0.9-0.1,1
	c-0.1,0.2-0.2,0.3-0.3,0.4c-0.2,0.1-0.4,0.1-0.8,0.1h-0.3v0.3h5.6v-0.3h-0.3c-0.2,0-0.5,0-0.7-0.1c-0.2-0.1-0.3-0.2-0.3-0.4
	c-0.1-0.1-0.1-0.4-0.1-1v-8.3h0.8c0.5,0,0.9,0,1.1,0.1c0.3,0.2,0.7,0.4,0.9,0.7c0.1,0.3,0.3,0.9,0.5,1.5h0.2v-3H45.2z M63.8,80.5
	v3.4c0,0.5-0.1,0.9-0.1,1c-0.1,0.2-0.2,0.3-0.3,0.4c-0.2,0.1-0.4,0.1-0.8,0.1h-0.3v0.3h5.6v-0.3h-0.3c-0.3,0-0.5,0-0.8-0.1
	c-0.1-0.1-0.2-0.3-0.3-0.4c0-0.1-0.1-0.4-0.1-1v-7.1c0-0.5,0.1-0.9,0.1-1c0.1-0.2,0.2-0.3,0.3-0.4c0.2-0.1,0.4-0.2,0.8-0.2h0.3v-0.2
	h-5.6v0.2h0.3c0.3,0,0.5,0.1,0.8,0.2l0.3,0.3c0,0.2,0.1,0.5,0.1,1.1v3.1H60v-3.1v-1c0.1-0.2,0.2-0.3,0.3-0.4
	c0.2-0.1,0.4-0.2,0.8-0.2h0.3v-0.2h-5.6v0.2h0.3c0.3,0,0.5,0.1,0.8,0.2l0.3,0.3c0.1,0.2,0.1,0.5,0.1,1.1v7.1c0,0.5,0,0.9-0.1,1
	c-0.1,0.2-0.2,0.3-0.3,0.4c-0.2,0.1-0.4,0.1-0.8,0.1h-0.3v0.3h5.6v-0.3H61c-0.3,0-0.5,0-0.7-0.1c-0.2-0.1-0.4-0.2-0.4-0.4v-4.4
	L63.8,80.5z M75.5,84c0.1,0.3,0.2,0.5,0.2,0.5c0.1,0.1,0.1,0.2,0.1,0.3c0,0.2-0.1,0.3-0.2,0.4c-0.1,0.1-0.4,0.1-0.9,0.1h-0.2v0.3
	h5.3v-0.3c-0.3,0-0.5-0.1-0.8-0.3c-0.2-0.1-0.5-0.7-0.9-1.5l-3.9-8.9h-0.1l-3.9,8.6c-0.2,0.6-0.5,1.1-0.9,1.6
	c-0.2,0.2-0.5,0.4-1,0.4v0.3h3.6v-0.3c-0.5,0-0.9-0.1-1.1-0.2c-0.2-0.1-0.3-0.3-0.3-0.7c0-0.2,0.1-0.5,0.2-0.9l0.4-1h3.8L75.5,84z
	 M71.4,82.1l1.6-3.6l1.5,3.6H71.4z M93.3,74.9v0.2c0.4,0.1,0.7,0.1,0.9,0.2c0.1,0.1,0.2,0.3,0.2,0.5c0,0.2-0.1,0.3-0.1,0.5
	c0,0.1-0.1,0.4-0.3,1l-1.8,4.6l-2-5.1c-0.2-0.7-0.3-1-0.3-1.1c0-0.1,0-0.2,0.1-0.3c0-0.1,0.1-0.1,0.2-0.2c0.1,0,0.4-0.1,0.8-0.1
	v-0.2h-5.1v0.2c0.3,0,0.5,0.1,0.8,0.2c0.1,0.1,0.3,0.2,0.4,0.4c0.1,0.2,0.3,0.7,0.5,1.2l0.4,1.2l-1.8,4.1L84.2,77
	c-0.2-0.7-0.4-1.1-0.4-1.2c0-0.2,0.1-0.3,0.2-0.4c0.1-0.1,0.3-0.1,0.8-0.2v-0.2h-4.7v0.2c0.3,0.1,0.5,0.2,0.8,0.3
	c0.1,0.2,0.3,0.8,0.8,1.6l3.5,8.9h0.3l3-7l2.6,7h0.3l3.4-9c0.3-0.8,0.4-1.1,0.4-1.2c0.1-0.2,0.3-0.3,0.4-0.4
	c0.1-0.1,0.3-0.1,0.5-0.2v-0.2H93.3z M103.6,84c0.1,0.3,0.2,0.5,0.2,0.5c0.1,0.1,0.1,0.2,0.1,0.3c0,0.2-0.1,0.3-0.2,0.4
	c-0.1,0.1-0.4,0.1-0.9,0.1h-0.2v0.3h5.3v-0.3c-0.3,0-0.7-0.1-0.8-0.3c-0.2-0.1-0.5-0.7-0.9-1.5l-3.9-8.9h-0.1l-3.9,8.6
	c-0.2,0.6-0.5,1.1-0.9,1.6c-0.2,0.2-0.5,0.4-1,0.4v0.3h3.6v-0.3c-0.5,0-0.9-0.1-1.1-0.2c-0.2-0.1-0.3-0.3-0.3-0.7
	c0-0.2,0.1-0.5,0.2-0.9l0.4-1h3.8L103.6,84z M99.6,82.1l1.6-3.6l1.5,3.6H99.6z M116.4,74.9v0.2c0.4,0.1,0.8,0.2,1,0.3
	c0.1,0.1,0.2,0.2,0.2,0.3c0,0.2-0.3,0.8-0.8,1.6l-2,3.2l-2-3.5c-0.4-0.8-0.7-1.3-0.7-1.5c0-0.1,0.1-0.1,0.2-0.2
	c0.1-0.1,0.3-0.2,0.7-0.2h0.2v-0.2h-5.1v0.2c0.3,0,0.7,0.1,0.9,0.3c0.1,0.1,0.5,0.7,1,1.6l2.6,4.6v2.2c0,0.5-0.1,0.9-0.1,1
	c-0.1,0.2-0.2,0.3-0.3,0.4c-0.2,0.1-0.4,0.1-0.8,0.1h-0.5v0.3h6v-0.3h-0.5c-0.3,0-0.5,0-0.8-0.1c-0.1-0.1-0.2-0.3-0.3-0.4
	c0-0.1-0.1-0.4-0.1-1v-2.6l2.4-3.9c0.5-1,1-1.6,1.2-1.9c0.2-0.1,0.5-0.2,0.9-0.3v-0.2H116.4z"/>
</svg>
