<?xml version="1.0" encoding="utf-8"?>
<!-- Generator: Adobe Illustrator 21.0.0, SVG Export Plug-In . SVG Version: 6.00 Build 0)  -->
<svg version="1.1" id="图层_1" xmlns="http://www.w3.org/2000/svg" xmlns:xlink="http://www.w3.org/1999/xlink" x="0px" y="0px"
	 viewBox="0 0 128 128" style="enable-background:new 0 0 128 128;" xml:space="preserve">
<style type="text/css">
	.st0{fill:#0C1C8C;}
	.st1{fill:#FFCC00;}
</style>
<path class="st0" d="M64,128c35.3,0,64-28.7,64-64S99.3,0,64,0S0,28.7,0,64S28.7,128,64,128z"/>
<path class="st1" d="M64.4,10.7l1.8,5.1h5.7l-4.6,3.1L69,24l-4.6-3.1L59.8,24l1.8-5.1l-4.6-3.1h5.7L64.4,10.7L64.4,10.7z"/>
<path class="st1" d="M64.4,103.2l1.8,5.4h5.7l-4.6,3.3l1.8,5.4l-4.6-3.3l-4.6,3.3l1.8-5.4l-4.6-3.3h5.7L64.4,103.2L64.4,103.2z"/>
<path class="st1" d="M111.5,56.9l1.8,5.4h5.7l-4.6,3.3l1.8,5.4l-4.6-3.3l-4.6,3.3l1.8-5.4l-4.6-3.3h5.7L111.5,56.9L111.5,56.9z"/>
<path class="st1" d="M18.1,56.9l1.8,5.4h5.7L21,65.7l1.8,5.4l-4.6-3.3l-4.6,3.3l1.8-5.4l-4.6-3.3h5.7L18.1,56.9L18.1,56.9z"/>
<path class="st1" d="M41.3,96.9l1.7,5.4h5.4l-4.4,3.3l1.7,5.4l-4.4-3.3l-4.4,3.3l1.7-5.4l-4.4-3.3h5.4L41.3,96.9L41.3,96.9z"/>
<path class="st1" d="M87.9,16.2l1.8,5.4h5.7l-4.6,3.3l1.8,5.4l-4.6-3.3l-4.6,3.3l1.8-5.4l-4.6-3.3h5.7L87.9,16.2L87.9,16.2z"/>
<path class="st1" d="M87.9,96.9l1.8,5.4h5.7l-4.6,3.3l1.8,5.4l-4.6-3.3l-4.6,3.3l1.8-5.4l-4.6-3.3h5.7L87.9,96.9L87.9,96.9z"/>
<path class="st1" d="M105.2,80.5l1.8,5.1h5.7l-4.6,3.1l1.8,5.1l-4.6-3.1l-4.6,3.1l1.8-5.1l-4.6-3.1h5.7L105.2,80.5L105.2,80.5z"/>
<path class="st1" d="M41.3,16.2l1.7,5.4h5.4l-4.4,3.3l1.7,5.4l-4.4-3.3l-4.4,3.3l1.7-5.4l-4.4-3.3h5.4L41.3,16.2L41.3,16.2z"/>
<path class="st1" d="M105.2,33.4l1.8,5.4h5.7l-4.6,3.3l1.8,5.4l-4.6-3.3l-4.6,3.3l1.8-5.4l-4.6-3.3h5.7L105.2,33.4L105.2,33.4z"/>
<path class="st1" d="M24.4,80.5l1.8,5.1h5.7l-4.6,3.1l1.8,5.1l-4.6-3.1l-4.6,3.1l1.8-5.1l-4.6-3.1h5.7L24.4,80.5L24.4,80.5z"/>
<path class="st1" d="M24.4,33.4l1.8,5.4h5.7l-4.6,3.3l1.8,5.4l-4.6-3.3l-4.6,3.3l1.8-5.4l-4.6-3.3h5.7L24.4,33.4L24.4,33.4z"/>
</svg>
