<?xml version="1.0" encoding="utf-8"?>
<!-- Generator: Adobe Illustrator 21.0.0, SVG Export Plug-In . SVG Version: 6.00 Build 0)  -->
<svg version="1.1" id="图层_1" xmlns="http://www.w3.org/2000/svg" xmlns:xlink="http://www.w3.org/1999/xlink" x="0px" y="0px"
	 viewBox="0 0 128 128" style="enable-background:new 0 0 128 128;" xml:space="preserve">
<style type="text/css">
	.st0{clip-path:url(#SVGID_2_);}
	.st1{fill:#FFFFFF;}
	.st2{fill:#FD0000;}
	.st3{fill:#FF0000;}
</style>
<circle cx="64" cy="64" r="64"/>
<g>
	<defs>
		<rect id="SVGID_1_" x="10" y="54" width="110" height="20.8"/>
	</defs>
	<clipPath id="SVGID_2_">
		<use xlink:href="#SVGID_1_"  style="overflow:visible;"/>
	</clipPath>
	<g class="st0">
		<path class="st1" d="M22.3,61.7H17V60c0-1-0.1-1.7-0.2-1.9c-0.1-0.3-0.3-0.4-0.7-0.4c-0.3,0-0.5,0.1-0.7,0.3
			c-0.1,0.2-0.2,0.8-0.2,1.7v8.7c0,0.8,0.1,1.3,0.2,1.6c0.1,0.3,0.4,0.4,0.7,0.4c0.4,0,0.6-0.1,0.8-0.4s0.2-0.9,0.2-1.7v-2.1h-1.1
			v-2.7h6.2v9.7H19l-0.5-1.3c-0.4,0.6-0.8,1-1.4,1.3c-0.5,0.3-1.2,0.4-1.9,0.4c-0.9,0-1.7-0.2-2.5-0.6c-0.8-0.4-1.4-0.9-1.8-1.4
			c-0.4-0.6-0.7-1.2-0.8-1.8c-0.1-0.6-0.2-1.6-0.2-2.8v-5.4c0-1.7,0.1-3,0.3-3.8c0.2-0.8,0.8-1.5,1.8-2.1c1-0.7,2.3-1,3.8-1
			c1.5,0,2.8,0.3,3.9,0.8c1,0.6,1.7,1.2,2,2c0.3,0.8,0.5,1.9,0.5,3.4L22.3,61.7L22.3,61.7z M28.3,64h-4.8v-1c0-1.1,0.1-2,0.4-2.6
			c0.3-0.6,0.9-1.2,1.8-1.6c0.9-0.5,2.1-0.7,3.5-0.7c1.7,0,3.2,0.3,4.1,0.8c0.9,0.5,1.4,1.2,1.6,2c0.2,0.8,0.3,2.4,0.3,4.8v7.4h-5.2
			v-1.3c-0.3,0.5-0.7,0.9-1.2,1.2c-0.5,0.3-1.1,0.4-1.8,0.4c-0.9,0-1.7-0.2-2.4-0.7c-0.7-0.4-1.1-1.4-1.1-2.9v-1.2
			c0-1.1,0.2-1.9,0.6-2.3c0.4-0.4,1.4-0.9,2.9-1.4c1.7-0.6,2.6-1,2.7-1.2c0.1-0.2,0.2-0.6,0.2-1.2c0-0.8-0.1-1.3-0.2-1.5
			c-0.1-0.2-0.3-0.4-0.6-0.4c-0.3,0-0.6,0.1-0.6,0.3c-0.1,0.2-0.1,0.7-0.1,1.5L28.3,64L28.3,64z M29.9,66c-0.8,0.5-1.3,1-1.4,1.3
			c-0.1,0.4-0.2,0.9-0.2,1.5c0,0.8,0.1,1.3,0.2,1.5c0.1,0.2,0.3,0.3,0.7,0.3c0.3,0,0.5-0.1,0.6-0.3c0.1-0.2,0.1-0.6,0.1-1.4V66
			L29.9,66z M41.8,58.3l-0.1,1.4c0.4-0.6,0.9-1,1.4-1.3c0.5-0.3,1.2-0.4,1.9-0.4c1.4,0,2.4,0.6,3.2,1.7c0.4-0.6,0.9-1,1.4-1.3
			c0.5-0.3,1.1-0.4,1.8-0.4c0.9,0,1.6,0.2,2.1,0.6c0.6,0.4,0.9,0.8,1.1,1.4c0.2,0.5,0.2,1.4,0.2,2.6v10.5h-4.9v-9.6
			c0-1.3,0-2-0.1-2.3c-0.1-0.3-0.3-0.5-0.7-0.5c-0.4,0-0.6,0.1-0.7,0.4c-0.1,0.3-0.2,1.1-0.2,2.4v9.6h-4.9v-9.4c0-1.5,0-2.3-0.1-2.6
			s-0.3-0.4-0.7-0.4c-0.2,0-0.4,0.1-0.6,0.2c-0.2,0.1-0.2,0.3-0.3,0.6c0,0.2,0,0.7,0,1.4v10.3h-5.1V58.3L41.8,58.3L41.8,58.3
			L41.8,58.3z M68.1,65.9h-6.6v3.2c0,0.7,0.1,1.1,0.2,1.3c0.1,0.2,0.3,0.3,0.6,0.3c0.4,0,0.6-0.1,0.8-0.4c0.1-0.3,0.2-0.8,0.2-1.5
			v-2h4.8V68c0,0.9-0.1,1.6-0.2,2.1c-0.1,0.5-0.4,1-0.9,1.6s-1.1,1-1.8,1.3c-0.7,0.3-1.7,0.4-2.8,0.4c-1.1,0-2-0.1-2.8-0.4
			c-0.8-0.3-1.5-0.7-1.9-1.1c-0.5-0.5-0.8-1-0.9-1.6c-0.2-0.6-0.3-1.4-0.3-2.5v-4.3c0-1.3,0.2-2.3,0.6-3.1c0.4-0.7,1-1.3,1.9-1.7
			c0.9-0.4,1.9-0.6,3.1-0.6c1.4,0,2.6,0.2,3.5,0.7c0.9,0.5,1.6,1.1,1.9,1.9c0.4,0.8,0.6,1.9,0.6,3.3V65.9L68.1,65.9z M63,63.5v-1.1
			c0-0.8,0-1.3-0.1-1.5c-0.1-0.2-0.3-0.3-0.6-0.3c-0.4,0-0.6,0.1-0.7,0.3c-0.1,0.2-0.1,0.7-0.1,1.5v1.1H63z"/>
		<path class="st2" d="M81.1,60.1h-4.9v-1.3c0-0.6-0.1-1-0.2-1.2c-0.1-0.2-0.3-0.3-0.6-0.3c-0.3,0-0.6,0.1-0.7,0.3
			c-0.2,0.2-0.2,0.6-0.2,1c0,0.6,0.1,1.1,0.3,1.4c0.2,0.3,0.7,0.7,1.5,1.1c2.4,1.2,3.8,2.3,4.4,3.1c0.6,0.8,0.9,2.1,0.9,3.8
			c0,1.3-0.2,2.2-0.5,2.8c-0.3,0.6-1,1.1-2,1.5c-1,0.4-2.1,0.6-3.4,0.6c-1.4,0-2.6-0.2-3.6-0.7c-1-0.5-1.7-1.1-2-1.8
			c-0.3-0.7-0.5-1.8-0.5-3.1v-1.2h4.9v2.2c0,0.7,0.1,1.1,0.2,1.3c0.1,0.2,0.4,0.3,0.7,0.3c0.4,0,0.6-0.1,0.8-0.4
			c0.2-0.2,0.3-0.6,0.3-1.1c0-1.1-0.2-1.8-0.5-2.1c-0.3-0.3-1.2-0.9-2.5-1.6c-1.3-0.8-2.3-1.3-2.8-1.7c-0.4-0.3-0.8-0.8-1.1-1.5
			c-0.3-0.6-0.4-1.4-0.4-2.4c0-1.4,0.2-2.6,0.6-3.3c0.4-0.6,1-1.1,1.9-1.5c0.9-0.4,2.1-0.5,3.4-0.5c1.4,0,2.5,0.2,3.5,0.6
			c1,0.4,1.6,0.9,1.9,1.5c0.3,0.6,0.5,1.8,0.5,3.3L81.1,60.1L81.1,60.1z M88.6,55.9v1.8H90V60h-1.4v8.5c0,1,0.1,1.5,0.2,1.6
			c0.1,0.1,0.4,0.2,1.2,0.2v2.4h-2c-1.2,0-2,0-2.5-0.1s-0.9-0.3-1.3-0.6c-0.4-0.3-0.6-0.7-0.7-1.1c-0.1-0.4-0.1-1.3-0.1-2.8V60h-1.1
			v-2.3h1.1v-1.8H88.6z M102.7,63.1v3.6c0,1.3-0.1,2.3-0.2,2.9c-0.2,0.6-0.5,1.2-1,1.7c-0.5,0.5-1.1,0.9-1.9,1.2
			c-0.8,0.3-1.7,0.4-2.7,0.4c-1.1,0-2.1-0.1-2.8-0.3c-0.8-0.2-1.4-0.6-1.8-1c-0.4-0.4-0.7-1-0.9-1.6c-0.2-0.6-0.3-1.6-0.3-2.8v-3.8
			c0-1.4,0.2-2.5,0.5-3.2c0.3-0.8,0.9-1.4,1.8-1.9c0.9-0.5,2-0.7,3.3-0.7c1.1,0,2.1,0.2,2.9,0.5c0.8,0.3,1.4,0.7,1.9,1.2
			c0.4,0.5,0.7,1,0.9,1.5C102.6,61.2,102.7,62,102.7,63.1z M97.7,61.9c0-0.8,0-1.2-0.1-1.4c-0.1-0.2-0.3-0.3-0.6-0.3
			c-0.3,0-0.5,0.1-0.6,0.3c-0.1,0.2-0.2,0.7-0.2,1.4v6.7c0,0.7,0.1,1.2,0.2,1.4c0.1,0.2,0.3,0.3,0.6,0.3c0.3,0,0.5-0.1,0.6-0.3
			c0.1-0.2,0.1-0.6,0.1-1.2L97.7,61.9L97.7,61.9z M109.3,57.9l-0.1,1.3c0.5-0.5,0.9-0.9,1.5-1.2c0.5-0.3,1.1-0.4,1.8-0.4
			c3-0.1,4.1,1.5,4.1,4.4v6.2c0,1.3-0.1,2.3-0.3,2.9c-1,2-3.7,2.3-5.6,1.5c-0.5-0.3-1-0.6-1.5-1.2v3.4h-5.1V57.9H109.3z M110.7,62.2
			c0-0.9,0-1.5-0.1-1.7c-0.1-0.2-0.3-0.3-0.6-0.3c-0.3,0-0.5,0.1-0.6,0.3c-0.1,0.2-0.1,0.8-0.1,1.6v6.1c0,0.9,0.1,1.5,0.2,1.7
			c0.1,0.2,0.3,0.3,0.7,0.3c0.3,0,0.5-0.1,0.6-0.3c0.1-0.2,0.1-0.7,0.1-1.5V62.2z"/>
		<path class="st3" d="M118.3,57.8v-1.3h0.6c0.1,0,0.2,0,0.3,0c0.1,0,0.1,0.1,0.1,0.1c0,0.1,0.1,0.1,0.1,0.2c0,0.1,0,0.2-0.1,0.2
			c-0.1,0.1-0.2,0.1-0.3,0.1c0,0,0.1,0,0.1,0.1c0.1,0,0.1,0.1,0.1,0.2l0.2,0.4h-0.2l-0.2-0.3c-0.1-0.1-0.1-0.1-0.1-0.2
			c0,0-0.1-0.1-0.1-0.1c0,0-0.1,0-0.1,0c0,0-0.1,0-0.1,0h-0.2v0.6H118.3z M118.4,57h0.4c0.1,0,0.1,0,0.2,0c0,0,0.1,0,0.1-0.1
			c0,0,0-0.1,0-0.1c0-0.1,0-0.1-0.1-0.2c0,0-0.1-0.1-0.2-0.1h-0.4V57z"/>
		<path class="st3" d="M118.8,56.1c-0.5,0-1,0.4-1,1s0.4,1,1,1c0.6,0,1-0.4,1-1S119.3,56.1,118.8,56.1z M117.6,57.1
			c0-0.7,0.5-1.2,1.2-1.2s1.2,0.5,1.2,1.2c0,0.7-0.5,1.2-1.2,1.2S117.6,57.8,117.6,57.1z"/>
	</g>
</g>
</svg>
