<?xml version="1.0" encoding="utf-8"?>
<!-- Generator: Adobe Illustrator 21.0.0, SVG Export Plug-In . SVG Version: 6.00 Build 0)  -->
<svg version="1.1" id="图层_1" xmlns="http://www.w3.org/2000/svg" xmlns:xlink="http://www.w3.org/1999/xlink" x="0px" y="0px"
	 viewBox="0 0 128 128" style="enable-background:new 0 0 128 128;" xml:space="preserve">
<style type="text/css">
	.st0{fill:#FFFFFF;}
	.st1{fill:#EA4335;}
	.st2{fill:#FBBC05;}
	.st3{fill:#4285F4;}
	.st4{fill:#34A853;}
</style>
<circle class="st0" cx="64" cy="64" r="64"/>
<path class="st1" d="M56.8,65.3c0,4.7-3.7,8.2-8.3,8.2s-8.3-3.5-8.3-8.2c0-4.8,3.7-8.2,8.3-8.2S56.8,60.6,56.8,65.3z M53.2,65.3
	c0-3-2.1-5-4.6-5c-2.5,0-4.6,2-4.6,5c0,2.9,2.1,5,4.6,5C51,70.3,53.2,68.2,53.2,65.3z"/>
<path class="st2" d="M74.6,65.3c0,4.7-3.7,8.2-8.3,8.2s-8.3-3.5-8.3-8.2c0-4.8,3.7-8.2,8.3-8.2S74.6,60.6,74.6,65.3z M71,65.3
	c0-3-2.1-5-4.6-5c-2.5,0-4.6,2-4.6,5c0,2.9,2.1,5,4.6,5C68.8,70.3,71,68.2,71,65.3z"/>
<path class="st3" d="M91.7,57.6v14.8c0,6.1-3.6,8.6-7.8,8.6c-4,0-6.4-2.7-7.3-4.8l3.1-1.3c0.6,1.3,1.9,2.9,4.1,2.9
	c2.7,0,4.4-1.7,4.4-4.8v-1.2h-0.1c-0.8,1-2.4,1.9-4.3,1.9c-4.1,0-7.9-3.6-7.9-8.2c0-4.6,3.8-8.3,7.9-8.3c2,0,3.5,0.9,4.3,1.8h0.1
	v-1.3L91.7,57.6L91.7,57.6z M88.5,65.4c0-2.9-1.9-5-4.4-5c-2.5,0-4.6,2.1-4.6,5c0,2.9,2.1,5,4.6,5C86.5,70.3,88.5,68.2,88.5,65.4z"
	/>
<path class="st4" d="M97.3,48.9V73h-3.5V48.9H97.3z"/>
<path class="st1" d="M111,68l2.8,1.9c-0.9,1.3-3.1,3.6-6.9,3.6c-4.7,0-8.2-3.6-8.2-8.2c0-4.9,3.5-8.2,7.8-8.2c4.3,0,6.4,3.4,7,5.2
	l0.4,0.9l-11,4.6c0.8,1.7,2.2,2.5,4,2.5C108.8,70.3,110.1,69.4,111,68z M102.4,65.1l7.4-3.1c-0.4-1-1.6-1.7-3.1-1.7
	C104.9,60.3,102.3,61.9,102.4,65.1z"/>
<path class="st3" d="M27,63.2v-3.5h11.8c0.1,0.6,0.2,1.3,0.2,2.1c0,2.6-0.7,5.9-3,8.2c-2.2,2.3-5.1,3.6-8.9,3.6c-7,0-13-5.7-13-12.8
	S19.9,48,27,48c3.9,0,6.7,1.5,8.8,3.5L33.2,54c-1.5-1.4-3.5-2.5-6.3-2.5c-5.1,0-9.2,4.1-9.2,9.3c0,5.1,4,9.3,9.2,9.3
	c3.3,0,5.2-1.3,6.4-2.6c1-1,1.6-2.4,1.9-4.3L27,63.2z"/>
</svg>
